<svg id="Layer_1" data-name="Layer 1" xmlns="http://www.w3.org/2000/svg" xmlns:xlink="http://www.w3.org/1999/xlink" viewBox="0 0 226.77 396.85"><defs><style>.cls-1{fill:#447dbb;}.cls-2{clip-path:url(#clip-path);}.cls-3{mask:url(#mask);}.cls-4{clip-path:url(#clip-path-2);}.cls-5{clip-path:url(#clip-path-3);}.cls-6{fill:#fff;}</style><clipPath id="clip-path"><path class="cls-1" d="M1056.9-473.93a50.81,50.81,0,0,1,50.81-50.82,50.82,50.82,0,0,1,50.82,50.82,50.81,50.81,0,0,1-50.82,50.81,50.81,50.81,0,0,1-50.81-50.81m-27.47,0a78.28,78.28,0,0,0,78.28,78.28A78.28,78.28,0,0,0,1186-473.93a78.28,78.28,0,0,0-78.28-78.29,78.29,78.29,0,0,0-78.28,78.29m141.37-81.38A18.29,18.29,0,0,0,1189.09-537a18.29,18.29,0,0,0,18.29-18.29,18.29,18.29,0,0,0-18.29-18.29,18.29,18.29,0,0,0-18.29,18.29M1046.11-349.85c-14.86-.67-22.93-3.15-28.3-5.24a47.17,47.17,0,0,1-17.53-11.41A47.17,47.17,0,0,1,988.87-384c-2.09-5.37-4.57-13.44-5.25-28.3-.73-16.08-.89-20.9-.89-61.6s.16-45.53.89-61.61c.68-14.86,3.16-22.93,5.25-28.3a47.17,47.17,0,0,1,11.41-17.53,47.15,47.15,0,0,1,17.53-11.4c5.37-2.09,13.44-4.57,28.3-5.25,16.08-.74,20.9-.89,61.6-.89s45.53.15,61.61.89c14.86.68,22.93,3.16,28.3,5.25a47.23,47.23,0,0,1,17.53,11.4,47,47,0,0,1,11.4,17.53c2.09,5.37,4.57,13.44,5.25,28.3.74,16.08.89,20.9.89,61.61s-.15,45.52-.89,61.6c-.68,14.86-3.16,22.93-5.25,28.3a47,47,0,0,1-11.4,17.53,47.25,47.25,0,0,1-17.53,11.41c-5.37,2.09-13.44,4.57-28.3,5.24-16.08.74-20.9.89-61.61.89s-45.52-.15-61.6-.89m-1.25-275.61c-16.23.74-27.31,3.31-37,7.08a74.64,74.64,0,0,0-27,17.59,74.64,74.64,0,0,0-17.59,27c-3.77,9.7-6.35,20.78-7.08,37s-.92,21.45-.92,62.86.17,46.59.92,62.85,3.31,27.31,7.08,37a74.64,74.64,0,0,0,17.59,27,74.64,74.64,0,0,0,27,17.59c9.69,3.77,20.77,6.34,37,7.08s21.45.92,62.85.92,46.6-.18,62.86-.92,27.3-3.31,37-7.08a74.73,74.73,0,0,0,27-17.59,74.64,74.64,0,0,0,17.59-27c3.76-9.69,6.34-20.77,7.08-37s.92-21.45.92-62.85-.18-46.6-.92-62.86-3.32-27.3-7.08-37a74.64,74.64,0,0,0-17.59-27,74.73,74.73,0,0,0-27-17.59c-9.7-3.77-20.78-6.34-37-7.08s-21.45-.92-62.86-.92-46.59.18-62.85.92"/></clipPath><mask id="mask" x="220.75" y="-1360.89" width="1774.78" height="1773.91" maskUnits="userSpaceOnUse"><rect x="220.75" y="-1360.89" width="1774.78" height="1773.91"/></mask><clipPath id="clip-path-2"><rect class="cls-1" x="220.75" y="-1360.89" width="1774.78" height="1773.91"/></clipPath><clipPath id="clip-path-3"><rect class="cls-1" x="220.75" y="-1360.89" width="1774.78" height="1773.91"/></clipPath></defs><title>arrow_l</title><path class="cls-1" d="M1056.9-473.93a50.81,50.81,0,0,1,50.81-50.82,50.82,50.82,0,0,1,50.82,50.82,50.81,50.81,0,0,1-50.82,50.81,50.81,50.81,0,0,1-50.81-50.81m-27.47,0a78.28,78.28,0,0,0,78.28,78.28A78.28,78.28,0,0,0,1186-473.93a78.28,78.28,0,0,0-78.28-78.29,78.29,78.29,0,0,0-78.28,78.29m141.37-81.38A18.29,18.29,0,0,0,1189.09-537a18.29,18.29,0,0,0,18.29-18.29,18.29,18.29,0,0,0-18.29-18.29,18.29,18.29,0,0,0-18.29,18.29M1046.11-349.85c-14.86-.67-22.93-3.15-28.3-5.24a47.17,47.17,0,0,1-17.53-11.41A47.17,47.17,0,0,1,988.87-384c-2.09-5.37-4.57-13.44-5.25-28.3-.73-16.08-.89-20.9-.89-61.6s.16-45.53.89-61.61c.68-14.86,3.16-22.93,5.25-28.3a47.17,47.17,0,0,1,11.41-17.53,47.15,47.15,0,0,1,17.53-11.4c5.37-2.09,13.44-4.57,28.3-5.25,16.08-.74,20.9-.89,61.6-.89s45.53.15,61.61.89c14.86.68,22.93,3.16,28.3,5.25a47.23,47.23,0,0,1,17.53,11.4,47,47,0,0,1,11.4,17.53c2.09,5.37,4.57,13.44,5.25,28.3.74,16.08.89,20.9.89,61.61s-.15,45.52-.89,61.6c-.68,14.86-3.16,22.93-5.25,28.3a47,47,0,0,1-11.4,17.53,47.25,47.25,0,0,1-17.53,11.41c-5.37,2.09-13.44,4.57-28.3,5.24-16.08.74-20.9.89-61.61.89s-45.52-.15-61.6-.89m-1.25-275.61c-16.23.74-27.31,3.31-37,7.08a74.64,74.64,0,0,0-27,17.59,74.64,74.64,0,0,0-17.59,27c-3.77,9.7-6.35,20.78-7.08,37s-.92,21.45-.92,62.86.17,46.59.92,62.85,3.31,27.31,7.08,37a74.64,74.64,0,0,0,17.59,27,74.64,74.64,0,0,0,27,17.59c9.69,3.77,20.77,6.34,37,7.08s21.45.92,62.85.92,46.6-.18,62.86-.92,27.3-3.31,37-7.08a74.73,74.73,0,0,0,27-17.59,74.64,74.64,0,0,0,17.59-27c3.76-9.69,6.34-20.77,7.08-37s.92-21.45.92-62.85-.18-46.6-.92-62.86-3.32-27.3-7.08-37a74.64,74.64,0,0,0-17.59-27,74.73,74.73,0,0,0-27-17.59c-9.7-3.77-20.78-6.34-37-7.08s-21.45-.92-62.86-.92-46.59.18-62.85.92"/><g class="cls-2"><g class="cls-3"><rect class="cls-1" x="220.75" y="-1360.89" width="1774.78" height="1773.91"/><g class="cls-4"><rect class="cls-1" x="220.75" y="-1360.89" width="1774.78" height="1773.91"/><g class="cls-5"><rect class="cls-1" x="220.75" y="-1360.89" width="1773.91" height="1773.91"/></g><rect class="cls-1" x="220.75" y="-1360.89" width="1774.78" height="1773.91"/></g></g></g><path class="cls-6" d="M23.49,223.35l122.27,140.9a38.08,38.08,0,1,0,57.52-49.92L102.67,198.39,203.2,82.51a38.08,38.08,0,1,0-57.53-49.9L23.49,173.44A38.07,38.07,0,0,0,23.49,223.35Z"/></svg>