<svg id="Layer_1" data-name="Layer 1" xmlns="http://www.w3.org/2000/svg" viewBox="0 0 110 119"><defs><style>.cls-1,.cls-2{fill:#0080c1;}.cls-2{fill-rule:evenodd;}</style></defs><title>Artboard 1 copy 4</title><path class="cls-1" d="M55,119a1.39,1.39,0,0,1-1.31-.94L37.28,69.5a1.39,1.39,0,0,1,.28-1.37,1.37,1.37,0,0,1,1.32-.42A76.62,76.62,0,0,0,55,69.33a76.62,76.62,0,0,0,16.12-1.62,1.37,1.37,0,0,1,1.32.42,1.39,1.39,0,0,1,.28,1.37L56.31,118.06A1.39,1.39,0,0,1,55,119ZM40.66,70.88,55,113.31,69.34,70.88A81.68,81.68,0,0,1,55,72.1,81.77,81.77,0,0,1,40.66,70.88Z"/><path class="cls-1" d="M55,65.93a106.58,106.58,0,0,1-18.58-1.44,1.36,1.36,0,0,1-1.06-.93L27.76,40.1a1.39,1.39,0,0,1,.72-1.67,1.37,1.37,0,0,1,1.75.49c1,1.51,10.37,3.7,24.77,3.7s23.79-2.19,24.77-3.7a1.37,1.37,0,0,1,1.75-.49,1.39,1.39,0,0,1,.72,1.67l-7.6,23.46a1.36,1.36,0,0,1-1.06.93A106.58,106.58,0,0,1,55,65.93Zm-17.27-4A106.85,106.85,0,0,0,55,63.17a106.85,106.85,0,0,0,17.27-1.25L78.5,42.69c-5.8,2.07-16.67,2.69-23.5,2.69s-17.7-.62-23.5-2.69Z"/><path class="cls-1" d="M59.92,57.93h-.37c-2.12-.11-4.1-1.21-6-3.35a18.17,18.17,0,0,1-1.14-1.42,8,8,0,0,0-1.16-1.39h0c-.17.15-.54.61-.75.86-.86,1.05-2.15,2.64-4.27,2.89a5.42,5.42,0,0,1-3.89-1.15,7.66,7.66,0,0,1-1.72-1.84,6.81,6.81,0,0,1-4.28,2.65,5.27,5.27,0,0,1-3.61-1A2.54,2.54,0,0,1,31.74,53l-3.47-9.61a2.48,2.48,0,0,1,1.43-3.15A2.77,2.77,0,0,1,33,41c1,.77,8.66,2.57,21.91,2.57S75.72,41.77,76.77,41A2.76,2.76,0,0,1,80,40.19a2.49,2.49,0,0,1,1.43,3.15l-3.63,10a2.66,2.66,0,0,1-2.12,1.69,2.76,2.76,0,0,1-2.52-.94c-1.69-2-2.71-1.91-3-1.87-.88.12-2.15,1.21-3.27,2.17C65,56.08,62.84,57.93,59.92,57.93Zm-8.64-9c1.45,0,2.4,1.29,3.33,2.54a13.62,13.62,0,0,0,1,1.22c1.43,1.57,2.78,2.37,4.14,2.44h.21c1.88,0,3.46-1.36,5.13-2.81,1.48-1.28,3-2.6,4.72-2.83,1.89-.25,3.73.68,5.49,2.77l3.3-9.14C77,44.39,72.87,45,71.23,45.27a107.4,107.4,0,0,1-16.37,1.09,107.67,107.67,0,0,1-16.38-1.09c-1.64-.25-5.73-.88-7.32-2.14l3.17,8.79a2.43,2.43,0,0,0,1.64.47c1.11-.12,2-1.15,2.73-2a7.65,7.65,0,0,1,1-1l.2-.14.24-.07c1.25-.35,1.94.64,2.55,1.51a5.53,5.53,0,0,0,1.23,1.41,2.74,2.74,0,0,0,1.92.64,4.19,4.19,0,0,0,2.43-1.88A5.4,5.4,0,0,1,50,49.25,3.13,3.13,0,0,1,51.28,48.93Zm25.43-7.86ZM33,41.07Z"/><path class="cls-1" d="M55,45.38c-2.81,0-27.5-.18-27.5-6.31S52.19,32.76,55,32.76s27.5.18,27.5,6.31S57.81,45.38,55,45.38ZM30.35,39.07c1.29,1.35,10.09,3.55,24.65,3.55s23.36-2.2,24.65-3.55C78.36,37.72,69.56,35.52,55,35.52S31.64,37.72,30.35,39.07Z"/><path class="cls-2" d="M62.17,38.24c1.55.12,2.5.29,2.5.47s-1,.35-2.5.48c.49.26.4.47-.4.6a22.32,22.32,0,0,1-4.15.05,5,5,0,0,1-5.24,0,22.36,22.36,0,0,1-4.15-.05c-.8-.13-.89-.34-.4-.6-1.55-.13-2.5-.29-2.5-.48s1-.35,2.51-.47c-.5-.26-.41-.48.39-.61a23.49,23.49,0,0,1,4.15,0,5,5,0,0,1,5.24,0,23.47,23.47,0,0,1,4.15,0c.8.13.89.35.4.61Z"/><path class="cls-1" d="M55,40.84a5,5,0,0,1-2.74-.73,23.23,23.23,0,0,1-4.1-.06c-.37-.06-.88-.18-1-.49a.22.22,0,0,1,0-.16c-2-.2-2.21-.43-2.21-.69s.17-.48,2.21-.68a.22.22,0,0,1,0-.16c.08-.32.59-.43,1-.49a21.44,21.44,0,0,1,4.1-.06,5.44,5.44,0,0,1,5.48,0,21.41,21.41,0,0,1,4.1.06c.37.06.88.17,1,.49a.29.29,0,0,1,0,.16c2,.2,2.2.43,2.2.68s-.17.49-2.21.69a.22.22,0,0,1,0,.16c-.08.31-.59.43-1,.49a23.23,23.23,0,0,1-4.1.06A5,5,0,0,1,55,40.84Zm-2.62-1.27a.44.44,0,0,1,.25.08,4.53,4.53,0,0,0,4.74,0,.48.48,0,0,1,.27-.08,22.43,22.43,0,0,0,4.06,0l.36-.08L62,39.41a.24.24,0,0,1-.14-.28.34.34,0,0,1,.3-.2c.95-.08,1.5-.16,1.82-.22a16.79,16.79,0,0,0-1.82-.21.36.36,0,0,1-.3-.2A.24.24,0,0,1,62,38l.09-.05-.36-.08a22.16,22.16,0,0,0-4.06,0,.47.47,0,0,1-.27-.07,4.53,4.53,0,0,0-4.74,0,.41.41,0,0,1-.27.07,22.07,22.07,0,0,0-4,0L48,38,48,38a.23.23,0,0,1,.14.28.34.34,0,0,1-.3.2,16.79,16.79,0,0,0-1.82.21c.32.06.87.14,1.82.22a.33.33,0,0,1,.3.2.24.24,0,0,1-.14.28l-.09,0a1.78,1.78,0,0,0,.37.09,22.27,22.27,0,0,0,4,0Zm9.75-.06h0Z"/></svg>