<svg id="Layer_1" data-name="Layer 1" xmlns="http://www.w3.org/2000/svg" xmlns:xlink="http://www.w3.org/1999/xlink" viewBox="0 0 110 119"><defs><style>.cls-1{fill:none;}.cls-2{fill:#fff;}.cls-3{fill:#007fbf;}.cls-4{clip-path:url(#clip-path);}.cls-5{clip-path:url(#clip-path-2);}.cls-6{fill:#0080c1;}</style><clipPath id="clip-path"><path class="cls-1" d="M62.35,29.73c.22,1.6,1,2.4,1.12,5.44s.16,8.76-.32,10.95-1.17,6.46-3.84,8-3.52.42-6.57,2.08-3.57,1-5.39,2.19-5.34,2.13-7.79,1-2.4-1.66-4-1.87S34.27,79,34.27,79s-2.56,23.86,4.38,34.59l6.94,10.73L56.43,127s10.57-1.55,11.1-4,5.34-13.29,5.34-13.29l3.36-43-3-30.8-4.7-5.4-4.37,0Z"/></clipPath><clipPath id="clip-path-2"><path class="cls-1" d="M69.51,40.89c-1.68-4.81-3.37-7-5.05-7.61s3.37,4.72-2.08-1.36-.08-4.41-4.64-5.77-5.05-1.76-5.85-1.44-1.52-9.37-1.36-10.49-1-9,1.68-10,20-5,21-4.64,6.33-.89,9,3.84,8.17,16.9,8,17.62-4.33,12.09-4.89,12.41-6.16,8-6.72,7.93S69.51,40.89,69.51,40.89Z"/></clipPath></defs><title>Artboard 1 copy 5</title><path class="cls-2" d="M39.79,28.48s0,0,0,0,0,0,0,0Z"/><path class="cls-3" d="M62.6,29.38c-2.05-3.38-4.66-5.41-7.76-6-5.11-1-9.6,2.22-9.79,2.36l-.13.1a11.58,11.58,0,0,1-2.58,1.91c.16-2,1.25-5.36,6.53-6.19a1.28,1.28,0,1,0-.4-2.52,10.1,10.1,0,0,0-7,3.86,7.36,7.36,0,0,0-.41.62A11.37,11.37,0,0,0,37,18.33c-4.66-3.13-10.37-1.51-10.61-1.44a1.31,1.31,0,0,0-.69.5l0,.06a1.21,1.21,0,0,0-.22.66c0,.25-.24,6.36,4,10.16a10.26,10.26,0,0,0,2.78,1.79,12.08,12.08,0,0,0-5.32,3.78c-1.94,2.51-2.57,5.75-1.89,9.64a20.31,20.31,0,0,0,3.87,8.66C35.54,61,43,63.44,49.18,58.76l.14-.1a17.51,17.51,0,0,1,2.27-1.34,18.62,18.62,0,0,1,2.6-.49h.18a11.94,11.94,0,0,0,3.43-.73C63.29,54,66,47.8,65.37,38.46A20.44,20.44,0,0,0,62.6,29.38ZM28.77,22.86A13.44,13.44,0,0,1,28,19.15a10.6,10.6,0,0,1,7.55,1.31c2.27,1.52,3.7,4.21,4.25,8h0s0,0,0,0,0,0,0,0c-3.76.4-6.67-.3-8.67-2.1A8.81,8.81,0,0,1,28.77,22.86ZM62.82,38.64c.38,5.58-.22,15-8.65,15.63H54a19.35,19.35,0,0,0-3.16.59l-.12,0-.11,0a21.86,21.86,0,0,0-2.77,1.62l-.06,0-.06,0-.06,0c-6.73,5.06-13.4-1.66-16.77-6.13A17.72,17.72,0,0,1,27.47,43c-.55-3.15-.09-5.71,1.38-7.62,2.32-3,6.49-3.61,7.07-3.68a12.51,12.51,0,0,0,5.74-1,12.63,12.63,0,0,0,5-3c.49-.33,4-2.63,7.75-1.87,2.36.47,4.4,2.1,6,4.83A17.73,17.73,0,0,1,62.82,38.64Z"/><path class="cls-2" d="M39.79,28.48s0,0,0,0,0,0,0,0Z"/><path class="cls-3" d="M59.24,38.91a1.27,1.27,0,0,1-.83,1.26,1.17,1.17,0,0,1-.38.08,1.26,1.26,0,0,1-1.34-1.2c-.17-2.93-1-4.9-2.4-5.88a5.46,5.46,0,0,0-4.24-.5,1.29,1.29,0,0,1-1.62-.82,1.27,1.27,0,0,1,.82-1.61,8,8,0,0,1,6.48.82C57.85,32.51,59,35.15,59.24,38.91Z"/><g class="cls-4"><path class="cls-3" d="M65.48,92.65H42.09a6.18,6.18,0,0,1-6.18-6.18V46.16a17.88,17.88,0,1,1,35.75,0V86.47A6.18,6.18,0,0,1,65.48,92.65ZM53.79,30.7A15.47,15.47,0,0,0,38.33,46.16V86.47a3.77,3.77,0,0,0,3.76,3.77H65.48a3.77,3.77,0,0,0,3.77-3.77V46.16A15.48,15.48,0,0,0,53.79,30.7Z"/><path class="cls-3" d="M53.79,118.61a5,5,0,0,1-5-5V91.44A1.21,1.21,0,0,1,50,90.24h7.68a1.2,1.2,0,0,1,1.2,1.2v22.12A5,5,0,0,1,53.79,118.61Zm-2.64-26v20.91a2.64,2.64,0,1,0,5.27,0V92.65Z"/><path class="cls-3" d="M60.09,83.87a1.21,1.21,0,0,1-1.21-1.21V47a1.21,1.21,0,1,1,2.42,0V82.66A1.21,1.21,0,0,1,60.09,83.87Z"/><path class="cls-3" d="M47.48,83.87a1.21,1.21,0,0,1-1.2-1.21v-32a1.21,1.21,0,0,1,2.41,0v32A1.21,1.21,0,0,1,47.48,83.87Z"/><path class="cls-2" d="M47.48,46.06a1.2,1.2,0,0,1-1.2-1.2V43.45a1.21,1.21,0,0,1,2.41,0v1.41A1.21,1.21,0,0,1,47.48,46.06Z"/></g><g class="cls-5"><path class="cls-6" d="M73.05,6.63a.52.52,0,0,0-.73.09,7.52,7.52,0,0,0-1.61,5.34l-1.07-.5A4.91,4.91,0,0,1,67.28,9.4a3.87,3.87,0,0,1-.68-2.59.54.54,0,0,0-.16-.56.52.52,0,0,0-.57-.06,3.27,3.27,0,0,0-1.48,3.45,13,13,0,0,0-2.77.52,6.58,6.58,0,0,1-4-.59.52.52,0,0,0-.59.84,14.72,14.72,0,0,0,1.94,1.51A11.2,11.2,0,0,0,57,13c-2.34,1.69-5.11,5.21-5,12.38l-.17,8.17c0,.6-.06,1.21-.11,1.8v0a5.88,5.88,0,0,0,2.73,5.44,6.21,6.21,0,0,0,6.08.41A2.91,2.91,0,0,0,61,41a71.13,71.13,0,0,1,8.35-4.51c2.94-1.25,5.51-2.48,7.23-4.87s2.22-5.55,1.49-9.59a3.18,3.18,0,0,1,1.52,1.51.51.51,0,0,0,.55.3.3.3,0,0,0,.16-.05.53.53,0,0,0,.28-.41c0-.12.25-3-3-5.25a7.32,7.32,0,0,1-1.9-1.86,12.15,12.15,0,0,0-3.83-3.65,6.59,6.59,0,0,1,1.32-5.26A.52.52,0,0,0,73.05,6.63ZM68.93,35.54a71.74,71.74,0,0,0-8.52,4.6A5.08,5.08,0,0,1,55,40a4.86,4.86,0,0,1-2.26-4.48v0c0-.6.1-1.23.11-1.86L53,25.41v0C53,20,54.51,16.15,57.59,13.89a10,10,0,0,1,2.47-1.3,7.81,7.81,0,0,0,2.6.9,7,7,0,0,0-1.52,2.31.53.53,0,0,0,.14.57.5.5,0,0,0,.58.08s3.48-1.78,5.79-.8A7.72,7.72,0,0,0,67,19.43,7,7,0,0,1,67,21.48a.47.47,0,0,0,.12.62.54.54,0,0,0,.68,0,5.19,5.19,0,0,1,1.65-.86,4.48,4.48,0,0,0,2.4-2.31c.46.89,1,2,1.43,2.69A8.17,8.17,0,0,1,74,25a.52.52,0,0,0,.35.5.51.51,0,0,0,.58-.17c.21-.27,1.69-2.29,1.63-3.87l.35.09C78.93,31.27,73.41,33.63,68.93,35.54ZM74.8,16.87A8.4,8.4,0,0,0,77,19a6,6,0,0,1,2.18,2.51,7.17,7.17,0,0,0-3.28-1.15.54.54,0,0,0-.28.05.64.64,0,0,0-.2.2.52.52,0,0,0,0,.55c.3.45,0,1.4-.48,2.3a6.82,6.82,0,0,0-.72-2.35c-.69-1.19-2-3.95-2.06-4a.53.53,0,0,0-.62-.27.52.52,0,0,0-.36.57c.16,1.15-1.23,2.61-2,2.81a5.59,5.59,0,0,0-1.11.45A12.44,12.44,0,0,0,68,19.3a7.38,7.38,0,0,1,.81-3.64A.52.52,0,0,0,68.6,15c-1.83-1.12-4.28-.57-5.81,0a6.91,6.91,0,0,1,1.61-1.57.52.52,0,0,0-.39-.94,6,6,0,0,1-4.13-1.13,5.24,5.24,0,0,0,2-.15,10,10,0,0,1,3-.49.52.52,0,0,0,.54-.64,3.14,3.14,0,0,1,.09-2,7.65,7.65,0,0,0,.77,1.9,5.92,5.92,0,0,0,2.86,2.62l.18.08a2.79,2.79,0,0,0,.78,3.47A2.4,2.4,0,0,0,72,16.5a2.65,2.65,0,0,0,.78-.26,2.88,2.88,0,0,0,.91-.74A14.58,14.58,0,0,1,74.8,16.87ZM73,14.75v0a1.84,1.84,0,0,1-1.12.71,1.35,1.35,0,0,1-1.07-.26,1.73,1.73,0,0,1-.47-2.12l0-.06c.3.14.47.24.47.24l0,0,0,0a5.16,5.16,0,0,0,.23.74.5.5,0,0,0,.67.29l0,0a.52.52,0,0,0,.25-.31A9,9,0,0,1,73,14.75Z"/><path class="cls-6" d="M58,42a6.75,6.75,0,0,1-3.6-1,6.06,6.06,0,0,1-2.81-5.59v0c0-.59.09-1.2.1-1.79l.17-8.18c-.07-7.23,2.74-10.79,5.1-12.51a12,12,0,0,1,1.67-1,14,14,0,0,1-1.71-1.36.69.69,0,0,1,.79-1.11,6.47,6.47,0,0,0,3.9.58,12.63,12.63,0,0,1,2.63-.52A3.41,3.41,0,0,1,65.79,6a.68.68,0,0,1,.76.08.69.69,0,0,1,.22.74,3.71,3.71,0,0,0,.66,2.45,4.84,4.84,0,0,0,2.28,2.1c.27.11.55.24.81.37a7.66,7.66,0,0,1,1.67-5.17.69.69,0,0,1,1-.11h0a.74.74,0,0,1,.26.46.69.69,0,0,1-.15.51,6.33,6.33,0,0,0-1.29,5,12.22,12.22,0,0,1,3.81,3.67A7.3,7.3,0,0,0,77.65,18c3.34,2.28,3.09,5.28,3.08,5.41a.69.69,0,0,1-.37.55.83.83,0,0,1-.21.06.68.68,0,0,1-.74-.4,2.8,2.8,0,0,0-1.13-1.25c.65,3.92.13,7-1.58,9.36s-4.34,3.67-7.3,4.93a70.79,70.79,0,0,0-8.33,4.5,5.06,5.06,0,0,1-.46.27A5.71,5.71,0,0,1,58,42Zm-.6-32.35a.32.32,0,0,0-.28.15.33.33,0,0,0,0,.44A14.26,14.26,0,0,0,59,11.78l.26.17-.28.13a10.55,10.55,0,0,0-1.88,1.08c-2.31,1.67-5,5.14-5,12.23L52,33.57c0,.61-.06,1.22-.11,1.82v0a5.7,5.7,0,0,0,2.66,5.27,6,6,0,0,0,5.9.41l.43-.25a71.67,71.67,0,0,1,8.38-4.53c2.92-1.24,5.46-2.46,7.16-4.81s2.18-5.46,1.46-9.46l-.07-.35.32.17a3.31,3.31,0,0,1,1.59,1.59.35.35,0,0,0,.37.2.2.2,0,0,0,.11,0,.36.36,0,0,0,.18-.27c0-.12.25-2.93-2.92-5.1a7.36,7.36,0,0,1-1.95-1.9,11.9,11.9,0,0,0-3.77-3.6l-.07,0,0-.08A6.82,6.82,0,0,1,73,7.25a.34.34,0,0,0-.06-.48h0a.34.34,0,0,0-.48.05,7.35,7.35,0,0,0-1.57,5.23l0,.3-.27-.13c-.35-.18-.71-.34-1.07-.5a5.15,5.15,0,0,1-2.44-2.24,3.84,3.84,0,0,1-.69-2.73.33.33,0,0,0-.11-.36.35.35,0,0,0-.38,0,3.11,3.11,0,0,0-1.39,3.28l0,.18H64.4a12.6,12.6,0,0,0-2.73.52,6.85,6.85,0,0,1-4.16-.6A.26.26,0,0,0,57.36,9.69ZM58,41a5.73,5.73,0,0,1-3-.89,5,5,0,0,1-2.34-4.64v0c.05-.6.1-1.23.11-1.85l.17-8.2c-.06-5.43,1.5-9.34,4.63-11.64A9.86,9.86,0,0,1,60,12.43l.07,0,.07,0a7.56,7.56,0,0,0,2.54.88l.34,0-.24.24a6.86,6.86,0,0,0-1.48,2.25.34.34,0,0,0,.1.38.32.32,0,0,0,.38.05s3.55-1.81,5.94-.8l.16.07-.07.16a7.49,7.49,0,0,0-.68,3.69,7,7,0,0,1,.07,2.11v.05a.3.3,0,0,0,.08.4.36.36,0,0,0,.46,0,5.51,5.51,0,0,1,1.72-.89,4.36,4.36,0,0,0,2.29-2.21l.15-.32.16.31c.43.85,1,2,1.42,2.68A8.53,8.53,0,0,1,74.17,25a.33.33,0,0,0,.23.33.35.35,0,0,0,.39-.12C75,25,76.44,23,76.37,21.5v-.22l.22,0a2.49,2.49,0,0,1,.37.09l.1,0,0,.1C79.12,31.38,73.51,33.77,69,35.7l-.06-.16.06.16a72,72,0,0,0-8.49,4.58A4.55,4.55,0,0,1,58,41ZM60,12.78A9.63,9.63,0,0,0,57.69,14c-3,2.22-4.54,6-4.49,11.36v0L53,33.6c0,.63-.06,1.26-.1,1.87v0a4.7,4.7,0,0,0,2.18,4.33,4.91,4.91,0,0,0,5.21.17,70.85,70.85,0,0,1,8.55-4.62h0c2.2-.94,4.7-2,6.36-4,1.89-2.29,2.39-5.44,1.54-9.65h0a8,8,0,0,1-1.66,3.75A.69.69,0,0,1,73.82,25a8.09,8.09,0,0,0-.66-3.33c-.35-.61-.87-1.59-1.28-2.4a4.48,4.48,0,0,1-2.35,2.09,5.16,5.16,0,0,0-1.59.83.72.72,0,0,1-.91,0,.65.65,0,0,1-.16-.81,7.22,7.22,0,0,0-.08-2,7.73,7.73,0,0,1,.63-3.72c-2.23-.8-5.44.84-5.48.86a.69.69,0,0,1-1-.86,7,7,0,0,1,1.33-2.13A8.76,8.76,0,0,1,60,12.78ZM74.82,24l-.07-.53a6.4,6.4,0,0,0-.7-2.28c-.66-1.15-1.92-3.7-2.07-4a.34.34,0,0,0-.41-.18.35.35,0,0,0-.24.37c.18,1.26-1.28,2.79-2.08,3a5.44,5.44,0,0,0-1.06.44l-.25.14v-.28a13,13,0,0,0-.12-1.37,7.53,7.53,0,0,1,.83-3.74.35.35,0,0,0-.13-.46c-1.72-1.06-4-.6-5.66,0l-.53.18.33-.45a6.77,6.77,0,0,1,1.66-1.6.35.35,0,0,0,.13-.43.34.34,0,0,0-.39-.2,5.9,5.9,0,0,1-4.26-1.16l-.65-.4.76.09a5,5,0,0,0,2-.14,10.25,10.25,0,0,1,3.11-.5.36.36,0,0,0,.29-.13.32.32,0,0,0,.07-.3,3.26,3.26,0,0,1,.11-2.14l.21-.48.11.51a7.69,7.69,0,0,0,.75,1.86,5.88,5.88,0,0,0,2.78,2.55l.18.08.18.08-.1.16a2.62,2.62,0,0,0,.73,3.24,2.21,2.21,0,0,0,1.71.41,2.18,2.18,0,0,0,.73-.25,2.76,2.76,0,0,0,.86-.69l.13-.16.13.15a13.94,13.94,0,0,1,1.09,1.39h0a8.24,8.24,0,0,0,2.13,2.07,6.21,6.21,0,0,1,2.24,2.58l.25.57-.51-.36a7,7,0,0,0-3.19-1.12.33.33,0,0,0-.19,0,.43.43,0,0,0-.14.13.35.35,0,0,0,0,.37c.4.6-.13,1.81-.48,2.47Zm-2.92-7.3a.67.67,0,0,1,.39.35c.14.29,1.41,2.83,2.06,4A6,6,0,0,1,75,22.88c.34-.77.44-1.37.26-1.64a.68.68,0,0,1,0-.74.68.68,0,0,1,.27-.26.73.73,0,0,1,.38-.08,8,8,0,0,1,2.82.85,6,6,0,0,0-1.84-1.88A8.75,8.75,0,0,1,74.66,17h0a12.94,12.94,0,0,0-.94-1.21,3,3,0,0,1-.83.63,2.71,2.71,0,0,1-.83.28ZM66,14.14a5,5,0,0,1,2.66.69.69.69,0,0,1,.25.91,7.19,7.19,0,0,0-.78,3.54c0,.41.09.79.1,1.12a5.29,5.29,0,0,1,.9-.34A3.12,3.12,0,0,0,71,17.44a.68.68,0,0,1,.43-.74,2.51,2.51,0,0,1-1.33-.5,3,3,0,0,1-.92-3.52h0A6.19,6.19,0,0,1,66.22,10a9.35,9.35,0,0,1-.62-1.37A3.44,3.44,0,0,0,65.68,10a.69.69,0,0,1-.72.85,10,10,0,0,0-3,.49,5,5,0,0,1-1.38.19,5.17,5.17,0,0,0,3.38.75.7.7,0,0,1,.79.41.69.69,0,0,1-.27.85,7,7,0,0,0-1.2,1.07A9.7,9.7,0,0,1,66,14.14Zm5.59,1.54a1.56,1.56,0,0,1-.93-.32A1.89,1.89,0,0,1,70.18,13v0l.08-.15.16.06.48.25h0l0,0,.1,0,0,.08a3.92,3.92,0,0,0,.22.72.33.33,0,0,0,.44.19h0a.31.31,0,0,0,.16-.21l.07-.23.2.14a9.93,9.93,0,0,1,.9.75l.11.1-.1.14a2.05,2.05,0,0,1-1.23.78Zm-1.2-2.42a1.6,1.6,0,0,0,.47,1.82,1.21,1.21,0,0,0,.94.23,1.64,1.64,0,0,0,.93-.54c-.2-.18-.39-.34-.59-.49a.55.55,0,0,1-.23.2.11.11,0,0,1-.07,0,.69.69,0,0,1-.89-.38,4.94,4.94,0,0,1-.22-.69h0Z"/><path class="cls-6" d="M58,42.23a7,7,0,0,1-3.7-1.07,6.24,6.24,0,0,1-2.9-5.77v0c0-.59.09-1.2.1-1.79l.17-8.17c-.07-7.31,2.78-10.92,5.18-12.66a11.3,11.3,0,0,1,1.41-.86,15.11,15.11,0,0,1-1.47-1.2.88.88,0,0,1,1-1.42,6.31,6.31,0,0,0,3.77.56A13.71,13.71,0,0,1,64,9.31,3.59,3.59,0,0,1,65.7,5.87a.89.89,0,0,1,1.25,1,3.63,3.63,0,0,0,.65,2.3,4.55,4.55,0,0,0,2.19,2l.54.24a7.79,7.79,0,0,1,1.71-5,.89.89,0,0,1,1.24-.14h0a.88.88,0,0,1,.33.59.91.91,0,0,1-.19.65,6.09,6.09,0,0,0-1.26,4.8A12.61,12.61,0,0,1,76,16.07a7.07,7.07,0,0,0,1.81,1.76,6.42,6.42,0,0,1,3.16,5.59.87.87,0,0,1-.47.69.72.72,0,0,1-.27.09.87.87,0,0,1-1-.52,2.53,2.53,0,0,0-.69-.9c.55,3.76,0,6.72-1.68,9s-4.4,3.72-7.39,5a69.47,69.47,0,0,0-8.29,4.48,5.5,5.5,0,0,1-.48.28A6,6,0,0,1,58,42.23Zm-.6-32.35a.15.15,0,0,0-.13.07.17.17,0,0,0,0,.2,16.42,16.42,0,0,0,1.89,1.47l.55.37-.61.26a10.52,10.52,0,0,0-1.84,1.07c-2.27,1.64-5,5.06-4.88,12.07l-.17,8.19c0,.61-.06,1.23-.11,1.82v0a5.54,5.54,0,0,0,2.57,5.1,5.88,5.88,0,0,0,5.72.4,3.38,3.38,0,0,0,.41-.24,69.9,69.9,0,0,1,8.41-4.54c2.88-1.23,5.41-2.44,7.08-4.76s2.14-5.36,1.42-9.31l-.13-.73.65.35a3.49,3.49,0,0,1,1.69,1.68.14.14,0,0,0,.16.09h0a.13.13,0,0,0,.08-.12c0-.12.24-2.81-2.84-4.92a7.91,7.91,0,0,1-2-1.95,11.58,11.58,0,0,0-3.7-3.54l-.16-.08,0-.18a7,7,0,0,1,1.38-5.55.11.11,0,0,0,0-.11.14.14,0,0,0,0-.1.16.16,0,0,0-.22,0A7.15,7.15,0,0,0,71.08,12l0,.64-.58-.28c-.34-.17-.7-.34-1-.49A5.37,5.37,0,0,1,67,9.57a4.26,4.26,0,0,1-.71-2.87.17.17,0,0,0,0-.17.15.15,0,0,0-.17,0,2.92,2.92,0,0,0-1.29,3.08l0,.39-.39,0a12.64,12.64,0,0,0-2.68.51,7,7,0,0,1-4.3-.61ZM58,41.2a6,6,0,0,1-3.14-.92,5.22,5.22,0,0,1-2.42-4.82v0c0-.61.09-1.23.11-1.85l.17-8.18c-.06-5.5,1.52-9.47,4.71-11.8a9.78,9.78,0,0,1,2.56-1.35l.15-.06.14.08a7.43,7.43,0,0,0,2.48.86l.71.1-.5.52a6.46,6.46,0,0,0-1.44,2.18.17.17,0,0,0,0,.17.17.17,0,0,0,.18,0c.14-.07,3.63-1.85,6.09-.81l.34.14-.14.34a7.28,7.28,0,0,0-.67,3.6,6.92,6.92,0,0,1,.06,2.17v.06l0,0c0,.07,0,.13,0,.17a.17.17,0,0,0,.21,0,5.76,5.76,0,0,1,1.79-.93,4.07,4.07,0,0,0,2.16-2.1l.32-.68.34.67c.43.84,1,2,1.41,2.67A8.66,8.66,0,0,1,74.36,25a.15.15,0,0,0,.1.15.16.16,0,0,0,.17-.05c.17-.22,1.61-2.17,1.55-3.63l0-.47.47.1.37.09.21.06.05.22c.92,4.43.39,7.76-1.63,10.2-1.74,2.11-4.3,3.2-6.56,4.16h0a73,73,0,0,0-8.46,4.57A4.8,4.8,0,0,1,58,41.2ZM60,13a9,9,0,0,0-2.22,1.2c-3,2.18-4.47,6-4.41,11.2v0l-.17,8.18c0,.64-.06,1.27-.1,1.88v0a4.53,4.53,0,0,0,2.09,4.15,4.72,4.72,0,0,0,5,.17,73.62,73.62,0,0,1,8.58-4.64h0c2.19-.93,4.66-2,6.29-4s2.26-4.88,1.67-8.56a10,10,0,0,1-1.53,2.89.89.89,0,0,1-1,.3.88.88,0,0,1-.59-.85A7.86,7.86,0,0,0,73,21.79c-.31-.54-.74-1.36-1.12-2.1a4.64,4.64,0,0,1-2.29,1.89,4.78,4.78,0,0,0-1.52.79.91.91,0,0,1-1.16,0,.85.85,0,0,1-.22-1,6.69,6.69,0,0,0-.08-1.88,7.69,7.69,0,0,1,.57-3.62c-2.14-.61-5.11.89-5.14.91a.87.87,0,0,1-1-.13.88.88,0,0,1-.24-1A6.84,6.84,0,0,1,62,13.73,8.94,8.94,0,0,1,60,13ZM74.71,24.6l-.15-1.11a6.34,6.34,0,0,0-.67-2.22c-.7-1.21-2.07-4-2.08-4a.15.15,0,0,0-.18-.08.15.15,0,0,0-.11.17c.19,1.37-1.35,3-2.22,3.21a5,5,0,0,0-1,.42l-.52.28,0-.59a12.46,12.46,0,0,0-.12-1.34,7.54,7.54,0,0,1,.85-3.86.16.16,0,0,0-.06-.21c-.75-.46-2.46-1.07-5.5,0l-1.11.39.7-.95a6.76,6.76,0,0,1,1.71-1.65.16.16,0,0,0,.06-.19.16.16,0,0,0-.18-.09,6.1,6.1,0,0,1-4.4-1.18l-1.37-.85,1.6.18a5.07,5.07,0,0,0,1.9-.13A9.93,9.93,0,0,1,65,10.3a.16.16,0,0,0,.13-.06.17.17,0,0,0,0-.13,3.52,3.52,0,0,1,.11-2.27l.45-1L66,7.91a7.06,7.06,0,0,0,.73,1.81,5.71,5.71,0,0,0,2.68,2.46l.19.08.38.17-.22.35a2.44,2.44,0,0,0,.68,3,2,2,0,0,0,1.57.37,2.19,2.19,0,0,0,.68-.23,2.45,2.45,0,0,0,.79-.64l.27-.33.28.32a14.23,14.23,0,0,1,1.11,1.4,7.82,7.82,0,0,0,2.07,2,6.38,6.38,0,0,1,2.32,2.67l.53,1.2-1.08-.76a6.82,6.82,0,0,0-3.1-1.09.13.13,0,0,0-.08,0,.15.15,0,0,0-.06.05.17.17,0,0,0,0,.17c.44.65,0,1.81-.46,2.67Zm-2.34-7.8a.83.83,0,0,1,.09.16s1.38,2.78,2.06,3.95a5.58,5.58,0,0,1,.53,1.32,1.25,1.25,0,0,0,0-.89.87.87,0,0,1,0-.93.9.9,0,0,1,.36-.34.85.85,0,0,1,.47-.1,8.5,8.5,0,0,1,2.24.56,6.44,6.44,0,0,0-1.38-1.25,8.65,8.65,0,0,1-2.26-2.21h0c-.25-.36-.51-.7-.79-1a3.12,3.12,0,0,1-.73.52A3.51,3.51,0,0,1,72.37,16.8Zm-3.16-1.28a.87.87,0,0,1-.1.31,7,7,0,0,0-.77,3.42c0,.31.08.6.1.87a4.93,4.93,0,0,1,.67-.24A2.73,2.73,0,0,0,70.23,19a2.15,2.15,0,0,0,.57-1.49.91.91,0,0,1,.16-.65,2.83,2.83,0,0,1-1-.46A2.79,2.79,0,0,1,69.21,15.52ZM66,14a5.17,5.17,0,0,1,2.76.71l.07.05a3.27,3.27,0,0,1,.06-1.94,6.41,6.41,0,0,1-2.87-2.7c-.09-.17-.18-.34-.26-.51,0,.12,0,.25.07.38a.86.86,0,0,1-.18.77A.88.88,0,0,1,65,11,9.78,9.78,0,0,0,62,11.5a3.77,3.77,0,0,1-.7.15,4.35,4.35,0,0,0,2.61.43.88.88,0,0,1,.66,1.6,5.8,5.8,0,0,0-.67.54A9.17,9.17,0,0,1,66,14Zm5.59,1.92a1.78,1.78,0,0,1-1-.35,2,2,0,0,1-.78-1.32A1.86,1.86,0,0,1,70,12.89v0l.16-.32.32.16L71,13h0l0,0,.17.08,0,.18a5,5,0,0,0,.2.69.16.16,0,0,0,.2.09h0a.24.24,0,0,0,.07-.09l.15-.49.41.3a7.87,7.87,0,0,1,.92.76l.24.22-.22.28a2.18,2.18,0,0,1-1.34.85Zm-1.09-2.34A1.43,1.43,0,0,0,71,14.92a1,1,0,0,0,.79.2,1.36,1.36,0,0,0,.69-.34l-.29-.24-.17.11a.2.2,0,0,1-.08,0,.88.88,0,0,1-1.14-.49,4.69,4.69,0,0,1-.2-.63Z"/><path class="cls-6" d="M58,42.41h0a7.21,7.21,0,0,1-3.79-1.11,6.42,6.42,0,0,1-3-5.93v0c0-.58.09-1.19.1-1.77l.17-8.18c-.08-7.37,2.81-11,5.25-12.79a13.08,13.08,0,0,1,1.18-.75,15.67,15.67,0,0,1-1.26-1,1.06,1.06,0,0,1,1.2-1.71,6.12,6.12,0,0,0,3.64.56,14.46,14.46,0,0,1,2.34-.5,3.75,3.75,0,0,1,1.81-3.43A1.05,1.05,0,0,1,67.11,7a3.63,3.63,0,0,0,.64,2.17,4.44,4.44,0,0,0,2.11,1.93l.3.14A8,8,0,0,1,71.9,6.38a1.06,1.06,0,0,1,1.48-.17,1.11,1.11,0,0,1,.4.71,1.06,1.06,0,0,1-.22.77,6,6,0,0,0-1.25,4.59A12.7,12.7,0,0,1,76.09,16a6.92,6.92,0,0,0,1.77,1.72,6.6,6.6,0,0,1,3.23,5.75,1,1,0,0,1-.56.83.91.91,0,0,1-.33.1,1,1,0,0,1-1.13-.62,2,2,0,0,0-.29-.48c.43,3.56-.15,6.4-1.78,8.66-1.81,2.5-4.45,3.77-7.46,5.06a70.51,70.51,0,0,0-8.27,4.46c-.15.1-.32.2-.49.29a6,6,0,0,1-2.82.67Zm-.6-33.08a.7.7,0,0,0-.58.3.72.72,0,0,0,.09.92,17.14,17.14,0,0,0,1.45,1.18l.22.16L58.3,12a10.33,10.33,0,0,0-1.39.85c-2.37,1.72-5.18,5.28-5.11,12.52l-.17,8.18c0,.59-.05,1.2-.1,1.79v0A6.09,6.09,0,0,0,54.35,41,6.86,6.86,0,0,0,58,42.06h0a5.77,5.77,0,0,0,2.66-.63,3.47,3.47,0,0,0,.46-.27,69.27,69.27,0,0,1,8.33-4.49c3-1.27,5.55-2.51,7.31-4.94s2.19-5.21,1.65-8.92l-.07-.45.35.29a2.49,2.49,0,0,1,.74,1,.71.71,0,0,0,.76.42.57.57,0,0,0,.22-.07.73.73,0,0,0,.38-.56c0-.13.26-3.14-3.09-5.43a7.22,7.22,0,0,1-1.85-1.8,12.28,12.28,0,0,0-3.74-3.63l-.07,0,0-.08a6.36,6.36,0,0,1,1.31-4.94.73.73,0,0,0-.12-1,.71.71,0,0,0-1,.12,7.71,7.71,0,0,0-1.67,4.87v.27l-.25-.11-.53-.24A4.75,4.75,0,0,1,67.45,9.3a3.76,3.76,0,0,1-.67-2.44.71.71,0,0,0-1-.84A3.41,3.41,0,0,0,64.17,9.3v.16l-.16,0a13.4,13.4,0,0,0-2.44.5,6.37,6.37,0,0,1-3.89-.58A.71.71,0,0,0,57.36,9.33ZM58,41.68a6.47,6.47,0,0,1-3.39-1,5.69,5.69,0,0,1-2.65-5.26v0c.05-.6.09-1.21.11-1.82l.17-8.18c-.07-7.08,2.65-10.55,5-12.21A10.22,10.22,0,0,1,59,12.1l.32-.14-.29-.2a15,15,0,0,1-1.9-1.49.32.32,0,0,1,0-.42.34.34,0,0,1,.42-.11,6.81,6.81,0,0,0,4.17.6,13,13,0,0,1,2.72-.51h.2l0-.21a3.19,3.19,0,0,1,1.07-3l.12-.28,0,.16L66,6.36a.34.34,0,0,1,.36,0,.33.33,0,0,1,.1.35,4.12,4.12,0,0,0,.69,2.74,5.17,5.17,0,0,0,2.46,2.25c.35.15.71.32,1.06.49l.3.15,0-.33a7.41,7.41,0,0,1,1.57-5.21.32.32,0,0,1,.58.16.3.3,0,0,1-.06.24,6.77,6.77,0,0,0-1.35,5.41v.09l.08,0a11.84,11.84,0,0,1,3.76,3.59,7.88,7.88,0,0,0,2,1.91,6.13,6.13,0,0,1,2.93,4.63l0,.13,0,0a3.41,3.41,0,0,1,0,.35.33.33,0,0,1-.18.26l-.1,0a.34.34,0,0,1-.35-.2,3.33,3.33,0,0,0-1.61-1.6l-.34-.18.07.38c.73,4,.25,7.08-1.45,9.44s-4.24,3.58-7.15,4.82a70.33,70.33,0,0,0-8.39,4.53c-.13.08-.28.17-.42.24A5.35,5.35,0,0,1,58,41.68Zm2.12-29.3-.08,0a9.89,9.89,0,0,0-2.51,1.33C54.34,16,52.78,20,52.84,25.4l-.17,8.19c0,.62-.06,1.24-.11,1.85v0a5,5,0,0,0,2.35,4.65,5.73,5.73,0,0,0,3,.9,4.6,4.6,0,0,0,2.56-.73A72.07,72.07,0,0,1,69,35.71c2.24-1,4.78-2,6.5-4.11,2-2.4,2.5-5.68,1.59-10l0-.12-.12,0-.36-.09-.25-.06,0,.25c.06,1.52-1.42,3.52-1.59,3.74a.33.33,0,0,1-.59-.2,8.39,8.39,0,0,0-.71-3.53c-.39-.67-1-1.83-1.42-2.68l-.17-.35-.17.36A4.3,4.3,0,0,1,69.43,21a5.43,5.43,0,0,0-1.72.9.36.36,0,0,1-.44,0,.31.31,0,0,1-.08-.38l0,0v0a6.41,6.41,0,0,0-.06-2.11,7.38,7.38,0,0,1,.68-3.69l.07-.17-.17-.08c-2.4-1-5.81.73-6,.81a.34.34,0,0,1-.37-.05.32.32,0,0,1-.09-.36,6.57,6.57,0,0,1,1.48-2.24l.26-.27-.37-.06a7.56,7.56,0,0,1-2.54-.88Zm14.44,12c0,.28,0,.5,0,.6l0-.07ZM71.67,17a.35.35,0,0,1,.3.18s1.37,2.78,2.07,4a6.41,6.41,0,0,1,.69,2.28l.08.58.28-.52c.61-1.15.78-2,.47-2.5a.32.32,0,0,1,0-.34.33.33,0,0,1,.13-.13.29.29,0,0,1,.18,0A7,7,0,0,1,79,21.65l.57.4-.28-.64a6.24,6.24,0,0,0-2.25-2.58A8.2,8.2,0,0,1,75,16.76a14,14,0,0,0-1.1-1.39l-.14-.17-.15.18a2.82,2.82,0,0,1-.84.69,2.5,2.5,0,0,1-.73.24,2.18,2.18,0,0,1-1.7-.4,2.61,2.61,0,0,1-.72-3.22l.11-.18-.2-.09-.18-.08A5.79,5.79,0,0,1,66.54,9.8,6.9,6.9,0,0,1,65.79,8l-.13-.56-.23.52a3.39,3.39,0,0,0-.11,2.16.31.31,0,0,1-.06.28.36.36,0,0,1-.28.12,10.19,10.19,0,0,0-3.12.5,5,5,0,0,1-2,.14l-.84-.1.72.45a6,6,0,0,0,4.27,1.16.33.33,0,0,1,.38.19.33.33,0,0,1-.13.4,7.19,7.19,0,0,0-1.66,1.61l-.37.5.59-.2c3.1-1.1,4.87-.46,5.64,0a.32.32,0,0,1,.12.43,7.48,7.48,0,0,0-.83,3.75,13,13,0,0,1,.12,1.37V21l.27-.15a5,5,0,0,1,1.07-.44c.8-.22,2.27-1.75,2.09-3a.33.33,0,0,1,.23-.36Zm7.62,5.23a3.14,3.14,0,0,1,.74,1c0-.1,0-.27,0-.5Zm-11.7-.88a2.07,2.07,0,0,1,0,.23v0l.21-.15-.16.09Zm8.28-.5a2.55,2.55,0,0,1,.13.29l0-.27ZM71.7,17.45a2.09,2.09,0,0,1-.07.74l.22-.46C71.78,17.61,71.74,17.51,71.7,17.45Zm-10-1.56,0,.06.4-.19Zm8.59-3.11-.11.21A1.73,1.73,0,0,0,70,14.18a1.85,1.85,0,0,0,.71,1.2,1.61,1.61,0,0,0,1.21.29,2,2,0,0,0,1.23-.78l.13-.16-.13-.12a8.37,8.37,0,0,0-.9-.74L72,13.71l-.07.26a.38.38,0,0,1-.16.19l0,0a.34.34,0,0,1-.43-.19,5.58,5.58,0,0,1-.21-.71l0-.09-.1,0,0,0h0l-.49-.25Zm1.11.21.05.21c.08.3.15.52.18.61l.18-.59-.22-.13Zm-8,0,.46.07-.24.24c.21-.18.39-.31.49-.38A3.35,3.35,0,0,1,63.33,13Zm8-.12h0l0-.12ZM60,12l-.12.05.13-.05ZM58,10.55l1.25.14a8.72,8.72,0,0,1-1.77-.59Zm7.91-3.73.13.56a2,2,0,0,1,.06-.69A.91.91,0,0,0,65.89,6.82ZM72.72,7ZM58,40.65a5.33,5.33,0,0,1-2.84-.84,4.65,4.65,0,0,1-2.17-4.3v0c0-.62.09-1.24.1-1.87l.17-8.21c0-5.31,1.45-9.12,4.48-11.34A9,9,0,0,1,60,12.83l.07,0,.07,0a8.61,8.61,0,0,0,1.89.73l.27.07-.18.21A7,7,0,0,0,61,15.73a.75.75,0,0,0,.19.79.73.73,0,0,0,.8.1s3.07-1.56,5.27-.92l.18.05-.07.17a7.51,7.51,0,0,0-.56,3.54,7.1,7.1,0,0,1,.08,1.93v0a.67.67,0,0,0,.18.81.73.73,0,0,0,.93,0,5.38,5.38,0,0,1,1.58-.82,4.4,4.4,0,0,0,2.19-1.82l.16-.24.14.26c.48.94.86,1.64,1.12,2.1A7.9,7.9,0,0,1,73.8,25a.71.71,0,0,0,1.28.44,9.94,9.94,0,0,0,1.49-2.82l.22-.74.12.76c.6,3.73,0,6.57-1.7,8.69s-4.16,3.06-6.36,4A73.07,73.07,0,0,0,60.3,40,4.24,4.24,0,0,1,58,40.65ZM60,13.18a9,9,0,0,0-2.11,1.15c-2.94,2.14-4.4,5.87-4.34,11.06v0L53.4,33.6c0,.64-.06,1.27-.11,1.89v0a4.32,4.32,0,0,0,2,4,4.53,4.53,0,0,0,4.82.17,71.75,71.75,0,0,1,8.61-4.64c2.16-.93,4.62-2,6.22-3.91s2.14-4.44,1.73-7.73a10.85,10.85,0,0,1-1.32,2.27,1.05,1.05,0,0,1-1.18.36,1,1,0,0,1-.71-1,7.63,7.63,0,0,0-.62-3.15c-.24-.42-.57-1-1-1.86a4.46,4.46,0,0,1-2.22,1.72,5,5,0,0,0-1.45.76,1.09,1.09,0,0,1-1.38,0,1,1,0,0,1-.27-1.19,8.24,8.24,0,0,0-.09-1.81A7.68,7.68,0,0,1,66.94,16c-2-.46-4.8.93-4.83.94a1.05,1.05,0,0,1-1.47-1.31,6.93,6.93,0,0,1,1-1.78A9.46,9.46,0,0,1,60,13.18Zm15,9.67-.15-.58A5.6,5.6,0,0,0,74.37,21c-.68-1.17-2.05-3.93-2.06-4a.83.83,0,0,0-.08-.12l-.16-.21.25-.07a3.14,3.14,0,0,0,.58-.22,3.44,3.44,0,0,0,.69-.49l.14-.13.11.14a12.08,12.08,0,0,1,.8,1.05,8.63,8.63,0,0,0,2.22,2.16,6.25,6.25,0,0,1,1.41,1.28l.43.53-.63-.26a7.29,7.29,0,0,0-2.18-.54.7.7,0,0,0-.38.07.84.84,0,0,0-.29.27.72.72,0,0,0,0,.76,1.42,1.42,0,0,1,0,1Zm-2.4-6c.12.25,1.39,2.81,2,3.92,0,.08.09.16.13.25a1.1,1.1,0,0,1,.12-.75,1,1,0,0,1,.43-.4,1.09,1.09,0,0,1,.56-.12,8.13,8.13,0,0,1,1.63.33,6.82,6.82,0,0,0-.87-.7,8.88,8.88,0,0,1-2.31-2.26c-.21-.3-.44-.6-.67-.88a3.46,3.46,0,0,1-.63.42A2.35,2.35,0,0,1,72.63,16.9Zm-4.35,3.47,0-.24c0-.26-.05-.55-.09-.85A7.25,7.25,0,0,1,69,15.75.73.73,0,0,0,69,15.5l0-.41-.33-.24-.06,0A6.19,6.19,0,0,0,64,14.39l-.64.15.49-.45a4.92,4.92,0,0,1,.69-.55.71.71,0,0,0-.53-1.3,4.37,4.37,0,0,1-2.72-.43l-.56-.25.61-.08a4.67,4.67,0,0,0,.67-.14,10,10,0,0,1,3-.49.75.75,0,0,0,.59-.25.7.7,0,0,0,.14-.62c0-.13,0-.27-.07-.39l-.17-1.12.5,1c.07.16.16.33.25.49A6.27,6.27,0,0,0,69,12.62l.14.07-.06.15a3,3,0,0,0,0,1.82l.11.42.22.35a2.6,2.6,0,0,0,.72.79,2.66,2.66,0,0,0,.92.43l.25.07-.15.2a.7.7,0,0,0-.13.52,2.36,2.36,0,0,1-.6,1.62,2.89,2.89,0,0,1-1.21,1c-.21.06-.43.14-.66.23Zm1-4.46h0a6.9,6.9,0,0,0-.74,3.32c0,.22,0,.43.07.64a3,3,0,0,1,.48-.16,2.57,2.57,0,0,0,1-.86,2,2,0,0,0,.54-1.36,1.06,1.06,0,0,1,.07-.56,3.23,3.23,0,0,1-.82-.43A3.15,3.15,0,0,1,69.26,15.91ZM66,13.78a5.48,5.48,0,0,1,2.58.58,3.28,3.28,0,0,1,.1-1.5A6.6,6.6,0,0,1,66,10.38a1.08,1.08,0,0,1-.22.44,1,1,0,0,1-.87.37,9.74,9.74,0,0,0-2.87.48l-.14,0a3.66,3.66,0,0,0,2,.2,1.05,1.05,0,0,1,.8,1.92l-.12.08A8.41,8.41,0,0,1,66,13.78Zm5.59,1.53a1.24,1.24,0,0,1-.72-.24,1.62,1.62,0,0,1-.54-1.57l0-.22.34.17,0,.08a4.63,4.63,0,0,0,.19.61.7.7,0,0,0,.92.39l.06,0a.42.42,0,0,0,.14-.09l.11-.09.11.09c.1.07.19.16.29.24l.15.13-.15.13a1.57,1.57,0,0,1-.77.38A.71.71,0,0,1,71.62,15.31Zm-.47-.49a.8.8,0,0,0,.61.13,1.11,1.11,0,0,0,.44-.18h0l-.09.05-.1,0A1,1,0,0,1,71.15,14.82Z"/><circle class="cls-6" cx="59.67" cy="20.09" r="0.52"/><path class="cls-6" d="M59.67,20.78a.64.64,0,0,1-.2,0,.73.73,0,0,1-.41-.34.7.7,0,0,1,0-.53.63.63,0,0,1,.33-.4A.69.69,0,1,1,60,20.7.72.72,0,0,1,59.67,20.78Zm0-1a.32.32,0,0,0-.16,0,.37.37,0,0,0-.17.2.36.36,0,0,0,0,.27.33.33,0,0,0,.46.14.34.34,0,0,0,.15-.46A.34.34,0,0,0,59.67,19.74Z"/><circle class="cls-6" cx="57.91" cy="25.67" r="0.52"/><path class="cls-6" d="M57.91,26.36A.67.67,0,0,1,57.3,26a.69.69,0,0,1,.29-.93.7.7,0,0,1,.53,0,.64.64,0,0,1,.4.34.69.69,0,0,1-.29.93A.71.71,0,0,1,57.91,26.36Zm0-1a.32.32,0,0,0-.16,0,.34.34,0,1,0,.47.15.32.32,0,0,0-.21-.17A.16.16,0,0,0,57.91,25.33Z"/><circle class="cls-6" cx="58.5" cy="33.54" r="0.52"/><path class="cls-6" d="M58.5,34.23a.69.69,0,0,1-.61-.37.69.69,0,1,1,.93.29A.72.72,0,0,1,58.5,34.23Zm0-1a.47.47,0,0,0-.16,0,.35.35,0,0,0,.32.62.35.35,0,0,0,.15-.47A.34.34,0,0,0,58.5,33.19Z"/><circle class="cls-6" cx="55.78" cy="37.29" r="0.52"/><path class="cls-6" d="M55.78,38l-.21,0a.74.74,0,0,1-.4-.34.69.69,0,0,1,.29-.93.69.69,0,0,1,.64,1.22A.72.72,0,0,1,55.78,38Zm0-1a.47.47,0,0,0-.16,0,.35.35,0,0,0-.14.47.34.34,0,0,0,.2.17.33.33,0,0,0,.26,0,.35.35,0,0,0,.15-.47A.34.34,0,0,0,55.78,36.94Z"/><circle class="cls-6" cx="56" cy="22" r="0.52"/><path class="cls-6" d="M56,22.69a.69.69,0,0,1-.61-.37.69.69,0,1,1,.93.29A.61.61,0,0,1,56,22.69Zm0-1a.42.42,0,0,0-.16,0,.35.35,0,0,0-.15.47.36.36,0,0,0,.47.15.35.35,0,0,0,.14-.47A.34.34,0,0,0,56,21.65Z"/><circle class="cls-6" cx="55.15" cy="27.11" r="0.52"/><path class="cls-6" d="M55.16,27.8a.72.72,0,0,1-.62-.37.69.69,0,0,1,.3-.93h0a.69.69,0,0,1,.93.29.69.69,0,0,1,0,.53.64.64,0,0,1-.34.4A.71.71,0,0,1,55.16,27.8Zm-.16-1a.35.35,0,0,0-.15.47.34.34,0,0,0,.46.14.28.28,0,0,0,.17-.2.33.33,0,0,0,0-.26A.34.34,0,0,0,55,26.8Z"/><circle class="cls-6" cx="55.23" cy="31.74" r="0.52"/><path class="cls-6" d="M55.23,32.43a.69.69,0,0,1-.61-.37.69.69,0,1,1,.93.29A.72.72,0,0,1,55.23,32.43Zm0-1a.47.47,0,0,0-.16,0,.35.35,0,1,0,.47.15A.37.37,0,0,0,55.23,31.39Z"/><circle class="cls-6" cx="61.59" cy="23.76" r="0.52"/><path class="cls-6" d="M61.59,24.45a.7.7,0,1,1,.31-.08A.6.6,0,0,1,61.59,24.45Zm0-1a.28.28,0,0,0-.15,0,.34.34,0,0,0-.15.46.34.34,0,0,0,.46.15.35.35,0,0,0,.15-.47A.33.33,0,0,0,61.58,23.42Z"/><circle class="cls-6" cx="60.74" cy="28.87" r="0.52"/><path class="cls-6" d="M60.74,29.56a.67.67,0,0,1-.61-.37.7.7,0,0,1-.05-.53.71.71,0,0,1,.34-.4h0a.69.69,0,0,1,.64,1.22A.61.61,0,0,1,60.74,29.56Zm0-1a.32.32,0,0,0-.16,0h0a.34.34,0,0,0-.17.2.3.3,0,0,0,0,.26.34.34,0,0,0,.46.15.35.35,0,0,0,.15-.47A.33.33,0,0,0,60.74,28.53Z"/><circle class="cls-6" cx="57.76" cy="16.41" r="0.52"/><path class="cls-6" d="M57.76,17.1a.67.67,0,0,1-.61-.37.69.69,0,1,1,1.22-.64.66.66,0,0,1,.05.53.73.73,0,0,1-.34.41h0A.71.71,0,0,1,57.76,17.1Zm0-1a.32.32,0,0,0-.16,0,.34.34,0,0,0-.15.46.35.35,0,0,0,.47.15h0a.37.37,0,0,0,.17-.2.36.36,0,0,0,0-.27A.35.35,0,0,0,57.76,16.07Z"/><circle class="cls-6" cx="63.83" cy="19.09" r="0.52"/><path class="cls-6" d="M63.83,19.78a.69.69,0,0,1-.32-1.3h0a.69.69,0,1,1,.32,1.3Zm-.16-1a.34.34,0,0,0-.15.46.35.35,0,0,0,.47.15.35.35,0,0,0,.14-.47.34.34,0,0,0-.46-.14Z"/><circle class="cls-6" cx="64.42" cy="26.96" r="0.52"/><path class="cls-6" d="M64.42,27.65a.72.72,0,0,1-.62-.37.69.69,0,0,1,.3-.93h0a.67.67,0,0,1,.52-.05.73.73,0,0,1,.41.34.69.69,0,0,1,0,.53.66.66,0,0,1-.33.4A.79.79,0,0,1,64.42,27.65Zm-.16-1a.35.35,0,0,0-.15.47.36.36,0,0,0,.47.15.39.39,0,0,0,.17-.21.36.36,0,0,0-.23-.43.33.33,0,0,0-.26,0Z"/><circle class="cls-6" cx="66.22" cy="23.69" r="0.52"/><path class="cls-6" d="M66.22,24.38A.72.72,0,0,1,65.6,24a.69.69,0,0,1,.3-.93.68.68,0,0,1,.93.29.7.7,0,0,1-.29.93A.79.79,0,0,1,66.22,24.38Zm0-1a.29.29,0,0,0-.16,0,.35.35,0,0,0-.15.47.35.35,0,0,0,.47.14.35.35,0,0,0-.16-.65Z"/><circle class="cls-6" cx="63.57" cy="32.07" r="0.52"/><path class="cls-6" d="M63.57,32.76a.69.69,0,0,1-.32-1.3.66.66,0,0,1,.53-.05.73.73,0,0,1,.41.34.7.7,0,0,1-.3.93A.72.72,0,0,1,63.57,32.76Zm0-1a.47.47,0,0,0-.16,0h0a.35.35,0,0,0-.14.47.33.33,0,0,0,.46.14.34.34,0,0,0,.15-.46.37.37,0,0,0-.2-.17Z"/><circle class="cls-6" cx="66.84" cy="33.87" r="0.52"/><path class="cls-6" d="M66.85,34.56a.71.71,0,0,1-.62-.37.7.7,0,0,1,0-.53.62.62,0,0,1,.34-.4h0a.63.63,0,0,1,.52,0,.73.73,0,0,1,.41.34.7.7,0,0,1-.3.93A.71.71,0,0,1,66.85,34.56Zm0-1a.47.47,0,0,0-.16,0h0a.37.37,0,0,0-.17.2.42.42,0,0,0,0,.27.34.34,0,0,0,.61-.32.34.34,0,0,0-.2-.17Z"/><circle class="cls-6" cx="63.17" cy="35.78" r="0.52"/><path class="cls-6" d="M63.17,36.47a.76.76,0,0,1-.21,0,.71.71,0,0,1-.4-.34.69.69,0,1,1,.93.29A.72.72,0,0,1,63.17,36.47Zm0-1a.45.45,0,0,0-.16,0,.36.36,0,0,0-.15.47.39.39,0,0,0,.21.17.34.34,0,0,0,.26,0,.34.34,0,0,0-.16-.65Z"/><circle class="cls-6" cx="67.25" cy="30.16" r="0.52"/><path class="cls-6" d="M67.25,30.85a.71.71,0,0,1-.62-.38.69.69,0,1,1,.94.3A.76.76,0,0,1,67.25,30.85Zm0-1a.29.29,0,0,0-.16,0,.35.35,0,0,0-.15.47.35.35,0,0,0,.47.14.33.33,0,0,0,.14-.46A.34.34,0,0,0,67.25,29.81Z"/><circle class="cls-6" cx="70.92" cy="28.24" r="0.52"/><path class="cls-6" d="M70.92,28.93a.67.67,0,0,1-.61-.37.69.69,0,0,1,.29-.93h0a.7.7,0,0,1,.53,0,.63.63,0,0,1,.4.33.69.69,0,0,1-.29.94A.71.71,0,0,1,70.92,28.93Zm-.16-1a.34.34,0,0,0,.32.61.35.35,0,0,0,.15-.47.37.37,0,0,0-.2-.17.36.36,0,0,0-.27,0Z"/><circle class="cls-6" cx="71" cy="32.87" r="0.52"/><path class="cls-6" d="M71,33.56a.69.69,0,0,1-.32-1.3h0a.69.69,0,0,1,.64,1.23A.74.74,0,0,1,71,33.56Zm-.16-1a.34.34,0,0,0-.15.46.35.35,0,0,0,.47.15.34.34,0,0,0-.32-.61Z"/><circle class="cls-6" cx="70.85" cy="23.61" r="0.52"/><path class="cls-6" d="M70.85,24.3a.69.69,0,0,1-.32-1.3.68.68,0,0,1,.93.29.7.7,0,0,1-.29.94A.74.74,0,0,1,70.85,24.3Zm0-1a.29.29,0,0,0-.16,0h0a.34.34,0,0,0-.15.46.35.35,0,0,0,.47.15.35.35,0,0,0,.14-.47.34.34,0,0,0-.2-.17Z"/><circle class="cls-6" cx="75.11" cy="29.57" r="0.52"/><path class="cls-6" d="M75.11,30.26a.68.68,0,0,1-.61-.38.69.69,0,0,1,.29-.93h0a.69.69,0,0,1,.64,1.23A.72.72,0,0,1,75.11,30.26Zm-.16-1a.34.34,0,1,0,.47.15.35.35,0,0,0-.47-.15Z"/><circle class="cls-6" cx="59.05" cy="39.09" r="0.52"/><path class="cls-6" d="M59.06,39.78a.71.71,0,0,1-.62-.37.69.69,0,1,1,.93.29A.71.71,0,0,1,59.06,39.78Zm0-1a.53.53,0,0,0-.16,0,.35.35,0,0,0-.14.47.34.34,0,1,0,.3-.51Z"/></g></svg>