<svg id="Layer_1" data-name="Layer 1" xmlns="http://www.w3.org/2000/svg" viewBox="0 0 110 119"><defs><style>.cls-1,.cls-2{fill:#007fc0;}.cls-1{fill-rule:evenodd;}.cls-3{fill:#007fbf;}</style></defs><title>Artboard 1</title><path class="cls-1" d="M40,72.75c2.68-5,5-9.33,5-9.33H33.28L28.62,54.8h6.47L37,58.21H53.93l-8,14.57Z"/><path class="cls-1" d="M45.49,73.57l-8.7,15.84H31.12l8.44-15.85Z"/><polygon class="cls-2" points="53.02 63.42 55.97 58.21 64.82 58.21 58.58 69.44 52.34 69.44 55.51 63.42 53.02 63.42"/><polygon class="cls-2" points="49.27 57.07 65.16 57.07 57.1 44.02 49.27 57.07"/><polygon class="cls-2" points="49.38 90.99 57.33 103.93 65.04 90.99 49.38 90.99"/><path class="cls-1" d="M72.25,69.44c1,1.75,2.67,4.76,2.67,4.76h-6l-2.16-3.51L61.18,80.1h10.9l-2.16-4.42h6L84,89.41H77.86l-2.94-4.66H58.24s-1,4.63-5.11,4.66c-3.74,0-10.1,0-10.1,0s-4.2,0-2.27-4.66l5.68-9.52A2.18,2.18,0,0,1,48.82,74c1.93.12,5.9,0,5.9,0s1.33-.18.68,1.14c-.83,1.68-1.7,3.18-1.7,3.18s-.18,1-1.82.9h-1a1.46,1.46,0,0,0-1.24.91c-.3.87-1.89,3.82-1.89,3.82s-.6.83.53.83h3.1L66.41,59.57s3,5,5.36,9.2l2.87-5.35H69.58l3.18-5.21h11L77.45,69.44Z"/><polygon class="cls-1" points="21.74 78.91 21.8 79.43 18.05 79.89 17.98 79.37 21.74 78.91"/><path class="cls-1" d="M19.54,81.62a1.15,1.15,0,0,0-.48.26,1,1,0,0,0-.18,1,1.43,1.43,0,0,0,.19.49.58.58,0,0,0,.66.33.48.48,0,0,0,.39-.28,2.33,2.33,0,0,0,.09-.65v-.52a2.54,2.54,0,0,1,.1-.75.78.78,0,0,1,.62-.49,1.1,1.1,0,0,1,.89.16,1.45,1.45,0,0,1,.53.91,1.75,1.75,0,0,1-.08,1,1,1,0,0,1-.8.6l-.11-.47a.93.93,0,0,0,.43-.26,1.23,1.23,0,0,0-.2-1.44.63.63,0,0,0-.48-.1.43.43,0,0,0-.34.31,3,3,0,0,0-.07.72V83a1.55,1.55,0,0,1-.11.63.9.9,0,0,1-.68.52,1,1,0,0,1-1-.27,2.06,2.06,0,0,1-.48-1,1.6,1.6,0,0,1,.12-1.16,1.25,1.25,0,0,1,.87-.58Z"/><path class="cls-1" d="M21.85,86.93a.94.94,0,0,0,.32.49.59.59,0,0,0,.56,0,.54.54,0,0,0,.42-.46.84.84,0,0,0-.06-.42l-.41-1.18-1.22.42Zm1.08-2.17.57,1.65a1.67,1.67,0,0,1,.12.72.89.89,0,0,1-.67.79,1,1,0,0,1-.57,0,.89.89,0,0,1-.46-.26.82.82,0,0,1-.12.4.85.85,0,0,1-.41.27l-.47.18a2.2,2.2,0,0,0-.3.14.34.34,0,0,0-.16.23l-.08,0-.2-.59a.45.45,0,0,1,.1-.09l.27-.11.59-.24a.52.52,0,0,0,.38-.42,1.13,1.13,0,0,0-.08-.46L21.06,86l-1.54.52L19.36,86Z"/><path class="cls-1" d="M23.3,91.48l1.25-1.25-1.77.18Zm1.64-1.74.25.52L22.4,93.15l-.25-.5.85-.84-.66-1.35-1.2.13-.23-.47Z"/><polygon class="cls-1" points="26.38 92.37 27.88 94.68 27.5 94.94 26.26 93.04 25.3 93.67 26.44 95.42 26.07 95.66 24.93 93.91 23.86 94.6 25.11 96.53 24.73 96.77 23.21 94.43 26.38 92.37"/><path class="cls-1" d="M31.83,103.53a1.52,1.52,0,0,0,.36.23,1,1,0,0,0,.63,0,1.69,1.69,0,0,0,.54-.31,3.69,3.69,0,0,0,.28-.29,1.78,1.78,0,0,0,.46-1,1,1,0,0,0-.45-.87l-.71-.57L31.12,103Zm1-3.5L34,101a1.47,1.47,0,0,1,.59,1.2,2.07,2.07,0,0,1-.5,1.23,2.5,2.5,0,0,1-.86.71,1.41,1.41,0,0,1-1.61-.2l-1.19-1Z"/><rect class="cls-2" x="33.64" y="104.16" width="3.78" height="0.52" transform="translate(-71.48 77.68) rotate(-57.18)"/><path class="cls-1" d="M38.57,106.6l.28-1.74-1.32,1.19Zm.3-2.36.51.27-.56,4-.49-.26.19-1.18-1.32-.7-.9.81-.46-.25Z"/><path class="cls-1" d="M42.26,107.56a1,1,0,0,0,.5.1.52.52,0,0,0,.45-.37.49.49,0,0,0-.1-.58,1.49,1.49,0,0,0-.45-.25l-.85-.32-.42,1.09Zm-.46,1.7a.8.8,0,0,0,.73,0,.76.76,0,0,0,.26-.34.56.56,0,0,0-.14-.66,1.6,1.6,0,0,0-.46-.26l-.95-.36-.47,1.24Zm-.3-3.7,1.51.58a1.08,1.08,0,0,1,.74.71,1,1,0,0,1-.44,1,1,1,0,0,1-.36.1,1.2,1.2,0,0,1,.32.39.86.86,0,0,1,0,.72,1.08,1.08,0,0,1-.45.54,1.31,1.31,0,0,1-1.18,0l-1.49-.57Z"/><polygon class="cls-1" points="45.36 106.97 48.03 107.63 47.92 108.08 45.73 107.53 45.45 108.65 47.48 109.16 47.37 109.58 45.35 109.08 45.04 110.32 47.27 110.87 47.16 111.31 44.44 110.63 45.36 106.97"/><polygon class="cls-1" points="51.98 108.22 51.92 108.67 50.65 108.49 50.19 111.79 49.67 111.72 50.13 108.42 48.88 108.24 48.94 107.79 51.98 108.22"/><polygon class="cls-1" points="53.02 108.27 55.78 108.32 55.78 108.78 53.52 108.74 53.49 109.89 55.58 109.93 55.58 110.37 53.49 110.33 53.47 111.61 55.76 111.65 55.76 112.1 52.96 112.05 53.02 108.27"/><path class="cls-1" d="M57.68,110.76a1,1,0,0,0,.21.5,1,1,0,0,0,.94.26,1.9,1.9,0,0,0,.51-.14.59.59,0,0,0,.38-.63.47.47,0,0,0-.24-.41,1.93,1.93,0,0,0-.64-.15l-.52-.06a2.41,2.41,0,0,1-.74-.15.82.82,0,0,1-.44-.67,1.09,1.09,0,0,1,.25-.87,1.45,1.45,0,0,1,1-.45,1.78,1.78,0,0,1,1,.17,1,1,0,0,1,.52.86l-.48.06a.79.79,0,0,0-1-.64.84.84,0,0,0-.62.27.57.57,0,0,0-.15.46.45.45,0,0,0,.28.38,4.8,4.8,0,0,0,.71.12l.54,0a1.58,1.58,0,0,1,.62.17.87.87,0,0,1,.45.72,1,1,0,0,1-.35.94,2,2,0,0,1-1,.4,1.59,1.59,0,0,1-1.15-.22,1.2,1.2,0,0,1-.5-.92Z"/><path class="cls-1" d="M65.19,109l-1-1.44-.09,1.78Zm-1.46-1.89.56-.17,2.42,3.21-.54.17-.7-1-1.43.43L64,111l-.5.15Z"/><path class="cls-1" d="M67.9,108.41a1.08,1.08,0,0,0,.35.42,1,1,0,0,0,1,0,1.77,1.77,0,0,0,.44-.29.58.58,0,0,0,.19-.71.49.49,0,0,0-.36-.32,1.93,1.93,0,0,0-.65,0l-.51.1a2.56,2.56,0,0,1-.76.07.81.81,0,0,1-.61-.5,1.07,1.07,0,0,1,0-.91,1.45,1.45,0,0,1,.78-.71,1.75,1.75,0,0,1,1-.14,1,1,0,0,1,.75.66l-.44.2a.92.92,0,0,0-.34-.36,1.21,1.21,0,0,0-1.36.49.6.6,0,0,0,0,.49.43.43,0,0,0,.38.28,5.65,5.65,0,0,0,.71-.09L69,107a1.57,1.57,0,0,1,.64,0,.9.9,0,0,1,.64.55,1,1,0,0,1,0,1,2,2,0,0,1-.86.68,1.59,1.59,0,0,1-1.15.12,1.19,1.19,0,0,1-.76-.73Z"/><path class="cls-1" d="M71.86,106.58a1,1,0,0,0,.39.37,1,1,0,0,0,1-.14,1.5,1.5,0,0,0,.4-.34.59.59,0,0,0,.1-.73.52.52,0,0,0-.39-.28,2.11,2.11,0,0,0-.64.13l-.5.16a2.46,2.46,0,0,1-.74.16.8.8,0,0,1-.67-.43,1.07,1.07,0,0,1-.13-.9,1.43,1.43,0,0,1,.69-.79,1.7,1.7,0,0,1,1-.27,1,1,0,0,1,.83.57l-.41.25a.79.79,0,0,0-1.22-.16.93.93,0,0,0-.46.5.61.61,0,0,0,.06.48.46.46,0,0,0,.41.23,3.46,3.46,0,0,0,.7-.18l.51-.17a1.8,1.8,0,0,1,.63-.1.9.9,0,0,1,.71.48.94.94,0,0,1,.07,1,2.06,2.06,0,0,1-.77.78,1.59,1.59,0,0,1-1.13.26,1.25,1.25,0,0,1-.84-.63Z"/><path class="cls-1" d="M76.52,101a2.16,2.16,0,0,1,1.08.81,2.2,2.2,0,0,1,.5,1.38,1.68,1.68,0,0,1-.75,1.39,1.71,1.71,0,0,1-1.44.36,2.19,2.19,0,0,1-1.21-.85,2.23,2.23,0,0,1-.48-1.28,1.65,1.65,0,0,1,.73-1.43A1.74,1.74,0,0,1,76.52,101Zm1.09,2.2a2,2,0,0,0-.43-1.07,1.56,1.56,0,0,0-.92-.65,1.16,1.16,0,0,0-1,.25,1.21,1.21,0,0,0-.52.9,1.66,1.66,0,0,0,.42,1.17,1.82,1.82,0,0,0,.89.66,1.25,1.25,0,0,0,1.08-.28A1.06,1.06,0,0,0,77.61,103.23Z"/><path class="cls-1" d="M79.43,97.83a1.32,1.32,0,0,1,.92.28l-.34.36a1,1,0,0,0-1.31.2,1.15,1.15,0,0,0-.34.93,1.82,1.82,0,0,0,.63,1.08,1.8,1.8,0,0,0,1,.53,1.11,1.11,0,0,0,.94-.38,1,1,0,0,0,.29-.93,1.73,1.73,0,0,0-.28-.59l.35-.35a1.66,1.66,0,0,1,.41,1,1.74,1.74,0,0,1-1.55,1.73,2,2,0,0,1-1.58-.71,2.11,2.11,0,0,1-.68-1.27,1.6,1.6,0,0,1,.5-1.35A1.5,1.5,0,0,1,79.43,97.83Z"/><polygon class="cls-1" points="80.37 96.35 80.7 95.95 83.6 98.39 83.27 98.78 80.37 96.35"/><path class="cls-1" d="M84.49,94.6l-1.7-.5,1,1.46ZM82.18,94l.33-.47,3.88,1-.32.47-1.15-.34-.86,1.22.7,1-.3.43Z"/><polygon class="cls-1" points="84.87 89.44 85.27 89.65 84.67 90.77 87.61 92.34 87.37 92.8 84.43 91.23 83.83 92.36 83.43 92.14 84.87 89.44"/><polygon class="cls-1" points="85.3 88.43 85.51 87.96 88.97 89.5 88.76 89.97 85.3 88.43"/><path class="cls-1" d="M87.52,83.92a2,2,0,0,1,1.33,0,2.22,2.22,0,0,1,1.21.84,1.69,1.69,0,0,1,.18,1.57,1.73,1.73,0,0,1-1,1.13,2.18,2.18,0,0,1-1.47,0,2.22,2.22,0,0,1-1.13-.77,1.65,1.65,0,0,1-.23-1.59A1.73,1.73,0,0,1,87.52,83.92Zm2.15,1.17a2.2,2.2,0,0,0-1-.64,1.62,1.62,0,0,0-1.13,0,1.17,1.17,0,0,0-.68.78,1.19,1.19,0,0,0,.09,1A1.64,1.64,0,0,0,88,87a1.77,1.77,0,0,0,1.11,0,1.21,1.21,0,0,0,.73-.85A1.1,1.1,0,0,0,89.67,85.09Z"/><polygon class="cls-1" points="87.38 82.26 87.47 81.67 90.79 80.25 87.77 79.78 87.84 79.3 91.58 79.89 91.49 80.45 88.16 81.89 91.19 82.37 91.11 82.86 87.38 82.26"/><polygon class="cls-1" points="28.85 96.12 29.15 96.52 26.57 98.46 27.69 99.94 27.34 100.2 25.92 98.32 28.85 96.12"/><path class="cls-1" d="M25.22,57.74l-.31.57-2.13-1.14a1.2,1.2,0,0,0-.69-.19c-.15,0-.31.23-.49.56l-.39.76,2.05,1.09a1.32,1.32,0,0,1,.62.55.79.79,0,0,1-.09.65,1,1,0,0,1-.35.33L23,60.69a.38.38,0,0,0,.23-.2c.11-.19,0-.37-.27-.52l-2.51-1.34.72-1.34c.31-.59.58-.91.82-1a2.1,2.1,0,0,1,1.23.37Z"/><path class="cls-1" d="M27.47,54.34l-.37.52-2-1.37q-.47-.33-.69-.27c-.15,0-.34.2-.58.53l-.58.84-.41-.28.77-1.1a1.39,1.39,0,0,1,.8-.66,1.44,1.44,0,0,1,1,.37Z"/><path class="cls-1" d="M29.17,52.28l-.69.76-.38-.33.69-.77a.71.71,0,0,0,.11-.75,2,2,0,0,0-.57-.79,2.13,2.13,0,0,0-.85-.49.72.72,0,0,0-.76.19l-.68.75-.36-.33.67-.76a1.35,1.35,0,0,1,1.22-.44,2.43,2.43,0,0,1,1.93,1.73A1.33,1.33,0,0,1,29.17,52.28Z"/><path class="cls-1" d="M32.1,49.31l-.47.44-2.07-2.22a2.37,2.37,0,0,0-.31-.27,1,1,0,0,0-.3-.17l.48-.45a1.73,1.73,0,0,1,.61.46Z"/><path class="cls-1" d="M35.32,45.12a1.28,1.28,0,0,1,.3,1.18A1.47,1.47,0,0,1,35,47l-1.24.9-2.59-2.79,2.68-1.94Zm-.5.4-1.16-1.59-1.58,1.14L34,47.14l.81-.59C35.13,46.3,35.13,46,34.82,45.52Z"/><path class="cls-1" d="M38.35,42.29l.79,2.17-.58.31-.8-2.19a4.21,4.21,0,0,0-.2-.5c-.14-.25-.37-.29-.69-.11l-.65.35A.6.6,0,0,1,35.3,42L35,41.42a1.74,1.74,0,0,0-.49-.58l.6-.33a1.86,1.86,0,0,1,.43.54,2.52,2.52,0,0,0,.46.7q.12.09.39-.06l.68-.38c.46-.25.81-.17,1,.24A6.35,6.35,0,0,1,38.35,42.29Z"/><path class="cls-1" d="M46.79,41.53l-.61.19-.71-2.31a1.17,1.17,0,0,0-.35-.63,1.11,1.11,0,0,0-.74.06l-.82.25.68,2.23a1.26,1.26,0,0,1,0,.82.74.74,0,0,1-.52.4,1,1,0,0,1-.48,0l-.15-.47a.39.39,0,0,0,.31,0c.22-.07.27-.26.18-.57L42.8,38.8l1.46-.44a1.82,1.82,0,0,1,1.26-.11c.21.11.42.49.61,1.13Z"/><path class="cls-1" d="M48.9,39.56l-.63.1L48,38.23a2.43,2.43,0,0,0-.11-.39,1.2,1.2,0,0,0-.15-.32l.65-.1a1.78,1.78,0,0,1,.24.72Z"/><path class="cls-1" d="M53.09,38.38l-.17,2.3-.65.06.16-2.33c0-.3,0-.48,0-.54,0-.29-.22-.42-.59-.39l-.73.07a.61.61,0,0,1-.73-.64l-.06-.71a1.69,1.69,0,0,0-.22-.72l.69-.06a2.25,2.25,0,0,1,.17.67,3,3,0,0,0,.13.82c0,.09.18.12.38.11l.78-.07c.52-.05.8.16.85.64C53.12,37.67,53.11,37.94,53.09,38.38Z"/><polygon class="cls-1" points="58.09 40.73 57.35 40.7 55.96 38.41 55.48 40.64 54.83 40.62 55.54 37.77 54.98 36.84 55.76 36.87 56.95 38.88 57.43 36.93 58.1 36.95 57.33 39.5 58.09 40.73"/><path class="cls-1" d="M61.79,41.29l-.63-.1.37-2.37a1,1,0,0,0-.05-.73,1.23,1.23,0,0,0-.74-.29l-1-.16.08-.49,1.32.22a1.36,1.36,0,0,1,.94.42,1.51,1.51,0,0,1,.11,1.05Z"/><path class="cls-1" d="M65.88,41.13l-.6-.2.78-2.41.61.2Zm1.54.19a1.48,1.48,0,0,1-.84,1.06,1.94,1.94,0,0,1-1.18-.1l-1.75-.57.83-3.7.6.2-.71,3.21.91.29a1.74,1.74,0,0,0,1,.13c.25-.07.43-.29.55-.67L67.5,39l.61.2Z"/><path class="cls-1" d="M70,42.36l-.59-.26L70,40.77a2.32,2.32,0,0,0,.12-.39,1.11,1.11,0,0,0,0-.34l.6.27a2,2,0,0,1-.19.74Z"/><path class="cls-1" d="M75.93,47.8l-.52-.37,1.25-1.79a1.37,1.37,0,0,0,.34-.8c0-.21-.17-.42-.48-.64l-1.19-.82.29-.41,1.2.84a1.77,1.77,0,0,1,.81.92A1.65,1.65,0,0,1,77.2,46Zm-2-1.37-.53-.37,1.28-1.82.53.37Z"/><polygon class="cls-1" points="81.42 48.29 80.84 47.75 78.61 50.15 78.14 49.71 80.37 47.31 79.21 46.22 79.54 45.86 81.76 47.93 81.42 48.29"/><path class="cls-1" d="M80.83,52.47,80.4,52l2.26-2a1.8,1.8,0,0,0,.27-.31.85.85,0,0,0,.18-.29l.44.49a1.76,1.76,0,0,1-.47.6Z"/><path class="cls-1" d="M83.21,55.54l-.35-.47c0-.08.08-.19.23-.32s.18-.22.14-.27-.09,0-.22,0a1.08,1.08,0,0,1-.41.05.74.74,0,0,1-.48-.32c-.17-.24-.24-.39-.2-.47l.48-.35a1,1,0,0,0,.16.43.83.83,0,0,0,.7.33,1.77,1.77,0,0,0,1-.4l.32-.24a1.15,1.15,0,0,0,.47-.52.69.69,0,0,0-.15-.7l-.3-.41.4-.3.45.63a1,1,0,0,1,.22.85,1.63,1.63,0,0,1-.72,1l-1.23.9A1.73,1.73,0,0,0,83.21,55.54Z"/><polygon class="cls-1" points="85.58 59.53 85.23 58.89 86.47 56.51 84.32 57.25 84.01 56.68 86.81 55.82 87.32 54.87 87.69 55.55 86.58 57.6 88.5 57.01 88.83 57.59 86.25 58.25 85.58 59.53"/><path class="cls-3" d="M55,119.5A45.51,45.51,0,0,1,37.29,32.08a45.51,45.51,0,0,1,35.42,83.84A45.1,45.1,0,0,1,55,119.5Zm0-88.16A42.66,42.66,0,1,0,97.66,74,42.71,42.71,0,0,0,55,31.34Z"/></svg>