<svg id="Layer_1" data-name="Layer 1" xmlns="http://www.w3.org/2000/svg" viewBox="0 0 110 119"><defs><style>.cls-1{fill:#0080c1;}</style></defs><title>Artboard 1 copy 3</title><path class="cls-1" d="M55,119a6,6,0,0,1-6-6V90.63a1.43,1.43,0,1,1,2.85,0V113a3.12,3.12,0,0,0,6.24,0V90.63a1.43,1.43,0,1,1,2.85,0V113A6,6,0,0,1,55,119Z"/><path class="cls-1" d="M55,92.21a68,68,0,0,1-26-5.12,4.77,4.77,0,0,1-2.5-6.48L51.42,28A3.92,3.92,0,0,1,55,25.73h0A3.92,3.92,0,0,1,58.58,28h0l25,52.61A4.77,4.77,0,0,1,81,87.09,68,68,0,0,1,55,92.21Zm0-63.62h0a1.07,1.07,0,0,0-1,.63L29.05,81.83a1.93,1.93,0,0,0,1,2.62,65.92,65.92,0,0,0,49.88,0A1.94,1.94,0,0,0,81,83.36,1.9,1.9,0,0,0,81,81.83L56,29.22A1.07,1.07,0,0,0,55,28.59Z"/><path class="cls-1" d="M55,80.75a56.43,56.43,0,0,1-24.41-5.49,1.42,1.42,0,0,1-.68-1.9,1.44,1.44,0,0,1,1.9-.68,54.21,54.21,0,0,0,46.38,0,1.44,1.44,0,0,1,1.9.68,1.42,1.42,0,0,1-.68,1.9A56.43,56.43,0,0,1,55,80.75Z"/><path class="cls-1" d="M51.28,51.56a1.24,1.24,0,0,1-.33,0,1.43,1.43,0,0,1-1.06-1.72l.7-2.9a1.42,1.42,0,1,1,2.77.67l-.69,2.9A1.43,1.43,0,0,1,51.28,51.56Z"/><path class="cls-1" d="M60.31,58.32a1.42,1.42,0,0,1-1.4-1.14l-.57-2.82a1.42,1.42,0,1,1,2.79-.58l.58,2.83A1.43,1.43,0,0,1,60.6,58.3,1.46,1.46,0,0,1,60.31,58.32Z"/><path class="cls-1" d="M53.12,69.23l-.21,0a1.42,1.42,0,0,1-1.2-1.62l.47-3.19a1.44,1.44,0,0,1,1.63-1.2A1.42,1.42,0,0,1,55,64.82L54.53,68A1.42,1.42,0,0,1,53.12,69.23Z"/></svg>