<svg id="Layer_1" data-name="Layer 1" xmlns="http://www.w3.org/2000/svg" viewBox="0 0 110 119"><defs><style>.cls-1{fill:#007ebe;}.cls-2,.cls-6{fill:#0082ca;}.cls-2,.cls-3,.cls-4{fill-rule:evenodd;}.cls-3,.cls-5{fill:#fff;}.cls-4{fill:#e1251b;}</style></defs><title>Artboard 1 copy 2</title><path class="cls-1" d="M54.08,119a130.3,130.3,0,0,1-22-1.66,55.69,55.69,0,0,1-14.75-4.45c-6.87-3.38-8.34-6.94-8.48-7.33a1.21,1.21,0,0,1-.05-.18L3.4,81.9a1.44,1.44,0,0,1,2.26-1.46c.59.45,1.18.94,1.8,1.47C12.36,86,20.57,93,56.3,94.24c29.46-.79,40.51-9.68,45.23-13.48a14.72,14.72,0,0,1,2.75-1.93,1.41,1.41,0,0,1,1.44.15,1.44,1.44,0,0,1,.57,1.33l-3.08,23.81a1.45,1.45,0,0,1-.28.69c-4.2,5.43-10.09,9.09-18,11.18-6.81,1.8-14,2.2-20.9,2.58-2.15.12-4.19.24-6.16.39h-.08C56.52,119,55.29,119,54.08,119ZM11.51,104.62c.22.45,1.78,3.23,7.51,5.93s17.32,6,38.66,5.56c2-.16,4-.27,6.18-.39,13.12-.73,28-1.56,36.57-12.36L103,83.23a50.48,50.48,0,0,1-13.77,8.08c-8.8,3.49-19.88,5.44-32.93,5.79h-.09C22.8,95.9,12.59,89.73,7.12,85.34Z"/><path class="cls-1" d="M53.7,93.06c-14.32,0-26-1.52-34.66-4.51C12,86.12,6.86,82.72,3.77,78.43A16.29,16.29,0,0,1,1,64.46l0,0c.07-.19.15-.43.24-.7.79-2.4,2.46-7.41,10-11.73,8.87-5.08,23.47-7.86,43.38-8.26h0c18.88-.14,33.23,2.17,42.64,6.86,8.74,4.35,10.65,9.55,11.07,11.6l0,.06a18.52,18.52,0,0,1-3.46,16c-3.39,4.37-8.81,7.83-16.12,10.28C79.91,91.54,68.1,93.06,53.7,93.06Zm-50-27.69a11.73,11.73,0,0,0-.38,3.57,14,14,0,0,0,2.8,7.88c2.75,3.78,7.43,6.83,13.9,9.05,8.38,2.87,19.7,4.33,33.66,4.33s25.6-1.47,34.21-4.35c6.76-2.27,11.72-5.4,14.76-9.32a15.66,15.66,0,0,0,3-13.57c0-.08,0-.14-.05-.2h0a9.59,9.59,0,0,0-2.2-4.18A22.6,22.6,0,0,0,96,53.14c-9-4.49-22.92-6.69-41.34-6.56-19.43.39-33.56,3-42,7.88-6.58,3.77-8,7.93-8.7,10.16C3.89,64.89,3.8,65.14,3.72,65.37Zm104.65-3.18h0Z"/><path class="cls-2" d="M54.34,52.55a33.8,33.8,0,0,1,3.91.06c3.71.23,7.14.8,9.7,2.21a8.54,8.54,0,0,1,2.27,1.7,8.9,8.9,0,0,1,1.61,2.35,16.24,16.24,0,0,1,1.07,6.84,17.51,17.51,0,0,1-1.39,6.55,12.4,12.4,0,0,1-3.31,4.63,15.18,15.18,0,0,1-5.12,2.81,24.35,24.35,0,0,1-6.7,1.24,25.48,25.48,0,0,1-7.19-.74,17.27,17.27,0,0,1-5.52-2.41C40.55,75.66,38.5,72.31,38,67.63a22.7,22.7,0,0,1-.13-3.8,18.94,18.94,0,0,1,.51-3.45,8.48,8.48,0,0,1,3.15-4.79,11.45,11.45,0,0,1,2.57-1.39,23.61,23.61,0,0,1,6.49-1.45,37.13,37.13,0,0,1,3.76-.2Zm-1.48,1c-5.33.32-10,1.24-12.42,4.49a10.53,10.53,0,0,0-1.79,5.73,21.77,21.77,0,0,0,.07,3.61c.49,4.41,2.37,7.66,5.34,9.7a18.59,18.59,0,0,0,8.4,2.88,22.11,22.11,0,0,0,3.58.16c4.77-.21,8.59-1.41,11.4-3.64a11.26,11.26,0,0,0,3.26-4.25,16.8,16.8,0,0,0,1.41-6.12,19.23,19.23,0,0,0-.18-3.53,11,11,0,0,0-.77-3,8.1,8.1,0,0,0-3.63-3.9,18.54,18.54,0,0,0-5.77-1.75,30.58,30.58,0,0,0-3.39-.37c-1.13-.05-2.51-.13-3.65-.07C54.08,53.48,53.47,53.46,52.86,53.5Z"/><path class="cls-3" d="M54.72,53.45c1.14-.06,2.52,0,3.65.07a30.58,30.58,0,0,1,3.39.37,18.54,18.54,0,0,1,5.77,1.75,8.1,8.1,0,0,1,3.63,3.9,11,11,0,0,1,.77,3,19.23,19.23,0,0,1,.18,3.53,16.8,16.8,0,0,1-1.41,6.12,11.26,11.26,0,0,1-3.26,4.25c-2.81,2.23-6.63,3.43-11.4,3.64a22.11,22.11,0,0,1-3.58-.16A18.59,18.59,0,0,1,44.06,77c-3-2-4.85-5.29-5.34-9.7a21.77,21.77,0,0,1-.07-3.61A10.53,10.53,0,0,1,40.44,58c2.41-3.25,7.09-4.17,12.42-4.49C53.47,53.46,54.08,53.48,54.72,53.45Zm-3.84.92a29.18,29.18,0,0,0-3.1.47,13.63,13.63,0,0,0-5.11,2,7.56,7.56,0,0,0-2.87,4.27,18.24,18.24,0,0,0-.31,6.52,11.86,11.86,0,0,0,5.37,8.91,20,20,0,0,0,11.56,2.69c4.45-.21,8.11-1.48,10.68-3.6s4.09-5.48,4.3-10a15.91,15.91,0,0,0-.24-3.32,9.71,9.71,0,0,0-.83-2.74,7.6,7.6,0,0,0-1.52-2,8.16,8.16,0,0,0-2.12-1.46,23,23,0,0,0-8.85-1.87c-1.12,0-2.4-.09-3.54,0S52,54.26,50.88,54.37Z"/><path class="cls-2" d="M54.3,54.2c1.14-.06,2.42,0,3.54,0a23,23,0,0,1,8.85,1.87,8.16,8.16,0,0,1,2.12,1.46,7.6,7.6,0,0,1,1.52,2,9.71,9.71,0,0,1,.83,2.74,15.91,15.91,0,0,1,.24,3.32c-.21,4.52-1.67,7.82-4.3,10s-6.23,3.39-10.68,3.6a20,20,0,0,1-11.56-2.69,11.86,11.86,0,0,1-5.37-8.91,18.24,18.24,0,0,1,.31-6.52,7.56,7.56,0,0,1,2.87-4.27,13.63,13.63,0,0,1,5.11-2,29.18,29.18,0,0,1,3.1-.47C52,54.26,53.11,54.25,54.3,54.2Zm.87,6.47a51.23,51.23,0,0,0-6.07.38c-.94.12-1.89.27-2.78.45a12.74,12.74,0,0,0-2.51.72,4.15,4.15,0,0,0-2.62,3.85,13.8,13.8,0,0,0,.11,3A9.8,9.8,0,0,0,42,71.65a6.31,6.31,0,0,0,3.31,3.14A15.63,15.63,0,0,0,50.53,76a32.4,32.4,0,0,0,6.17-.11c1.42-.18,2.84-.41,4.15-.69.44-.1.87-.25,1.31-.32.16,0,.39,0,.43.14s-.35.49-.52.6a6.9,6.9,0,0,1-1.46.74c-.21.07-.72.15-.68.43s.75.13,1.06.1a10.67,10.67,0,0,0,6-2.83A7.84,7.84,0,0,0,68.91,71a13,13,0,0,0,.57-4.44,6.66,6.66,0,0,0-.38-2.14c-.73-1.85-2.5-2.43-4.65-2.9a41.48,41.48,0,0,0-6.76-.79c-.8,0-1.69-.08-2.49,0Z"/><path class="cls-3" d="M55.2,60.67c.8,0,1.69,0,2.49,0a41.48,41.48,0,0,1,6.76.79c2.15.47,3.92,1,4.65,2.9a6.66,6.66,0,0,1,.38,2.14A13,13,0,0,1,68.91,71,7.84,7.84,0,0,1,67,74.07a10.67,10.67,0,0,1-6,2.83c-.31,0-1,.15-1.06-.1s.47-.36.68-.43a6.9,6.9,0,0,0,1.46-.74c.17-.11.59-.32.52-.6s-.27-.16-.43-.14c-.44.07-.87.22-1.31.32-1.31.28-2.73.51-4.15.69a32.4,32.4,0,0,1-6.17.11,15.63,15.63,0,0,1-5.25-1.22A6.31,6.31,0,0,1,42,71.65a9.8,9.8,0,0,1-.67-2.56,13.8,13.8,0,0,1-.11-3,4.15,4.15,0,0,1,2.62-3.85,12.74,12.74,0,0,1,2.51-.72c.89-.18,1.84-.33,2.78-.45a51.23,51.23,0,0,1,6.07-.38ZM65.56,65l-1,.1a2.76,2.76,0,0,0-.94.15.72.72,0,0,0,0,.64c.13.11.77,0,1,0h2.13a4,4,0,0,0,1,0,.31.31,0,0,0,.16-.19c.1-.28,0-.81-.14-.9a.54.54,0,0,0-.25,0C66.89,64.89,66.31,65,65.56,65Zm-8.86.9c.41,0,1,.06,1.09-.17a1.52,1.52,0,0,0,0-.82c-.09-.11-.47-.09-.7-.09l-4.23,0-2,0c-1,0-1.87.06-2.86.06-.54,0-1,0-1.15.33a3.37,3.37,0,0,0,0,1.06c0,1.11,0,2.19,0,3.2-.71-1.37-1.41-2.61-2.1-4-.11-.23-.18-.44-.36-.51a2,2,0,0,0-.74,0,1.37,1.37,0,0,0-.7.13c-.18.14-.16.49-.18.86-.06,1.46,0,2.8.05,4.18,0,.48,0,1.32.21,1.5a1.79,1.79,0,0,0,1.1,0c.16-.15.08-.72.07-1-.06-1.15,0-2.2-.11-3.3.7,1.27,1.43,2.64,2.14,3.91a1,1,0,0,0,.38.48,2,2,0,0,0,.79.09c.29,0,.55,0,.68-.11s.09-.4.09-.69c0-1.49-.06-2.94-.06-4.39a1.8,1.8,0,0,1,0-.7C51,65.94,53.72,65.86,56.7,65.93Zm3.17-.05a3,3,0,0,0,0-.8c-.1-.25-.6-.29-1-.23-.59.09-.2,1.27-.33,1.85-.19,0-.34,0-.46.08a.87.87,0,0,0,0,.8c.13.13.27,0,.47.08,0,.94-.06,1.88,0,2.76A1.51,1.51,0,0,0,60,71.91a2.89,2.89,0,0,0,.78,0c.24-.09.26-.83.07-1s-.38,0-.54-.09c-.58-.18-.44-1.09-.44-1.88v-1.3c.38-.07,1,.15,1.09-.14a1.63,1.63,0,0,0,0-.66c-.12-.29-.74-.1-1.11-.16Zm1.52.05v.84c0,1,0,2.3,0,3.3,0,.25,0,.51,0,.81,0,.47-.08.87.19,1a1.5,1.5,0,0,0,1,0c.15-.12.16-.4.16-.75s0-.65,0-.9c0-.64,0-1.24,0-1.83,0-.82,0-2,0-2.73,0-.25,0-.55-.14-.68a1.9,1.9,0,0,0-.89-.07C61.31,65,61.39,65.45,61.39,65.93Zm-7.07,1.12A1.5,1.5,0,0,0,54,68.92c.39.64,1.31.78,2.12,1,.21,0,.61.13.65.39a.46.46,0,0,1-.29.49A1.42,1.42,0,0,1,55,70.58c-.1-.11-.12-.29-.23-.36a1.81,1.81,0,0,0-1,0c-.22.17,0,.64.05.81.79,1.4,4.23,1.36,4.25-.68,0-1.35-1.3-1.49-2.34-1.77-.22-.06-.58-.14-.62-.38-.09-.47.44-.59.89-.56a1.06,1.06,0,0,1,.6.24c.15.14.12.29.28.36a1.58,1.58,0,0,0,1,0c.12-.11.06-.41,0-.57a2.11,2.11,0,0,0-2.11-1A2.54,2.54,0,0,0,54.32,67.05Zm-1.76,2.67c.3,0,.64,0,.78-.1s.12-.6.08-.87a2.3,2.3,0,0,0-2.55-2.12,2.24,2.24,0,0,0-1.42.56,2.91,2.91,0,0,0-.78,2.9,2.48,2.48,0,0,0,4.42.89c.08-.12.31-.56.13-.75a2,2,0,0,0-1,0c-.2.07-.27.31-.46.45a1.17,1.17,0,0,1-1.83-.92ZM67,69.64c.32,0,.64,0,.8-.08s.14-.88.08-1.16a2.18,2.18,0,0,0-2.36-1.79,2.29,2.29,0,0,0-1.52.6,3,3,0,0,0-.77,3,2.37,2.37,0,0,0,.79,1.17,2.18,2.18,0,0,0,1.5.47,2.54,2.54,0,0,0,2-1c.1-.14.32-.5.23-.72s-.26-.13-.52-.12a2.36,2.36,0,0,0-.55,0c-.22.08-.31.35-.53.49a1.12,1.12,0,0,1-1.72-.92Z"/><path class="cls-4" d="M67.58,64.84a.54.54,0,0,1,.25,0c.18.09.24.62.14.9a.31.31,0,0,1-.16.19,4,4,0,0,1-1,0H64.63c-.23,0-.87.06-1,0a.72.72,0,0,1,0-.64,2.76,2.76,0,0,1,.94-.15l1-.1C66.31,65,66.89,64.89,67.58,64.84Z"/><path class="cls-4" d="M48.18,66a1.8,1.8,0,0,0,0,.7c0,1.45.06,2.9.06,4.39,0,.29,0,.55-.09.69s-.39.11-.68.11a2,2,0,0,1-.79-.09,1,1,0,0,1-.38-.48c-.71-1.27-1.44-2.64-2.14-3.91.06,1.1,0,2.15.11,3.3,0,.3.09.87-.07,1a1.79,1.79,0,0,1-1.1,0c-.24-.18-.2-1-.21-1.5,0-1.38-.11-2.72-.05-4.18,0-.37,0-.72.18-.86a1.37,1.37,0,0,1,.7-.13,2,2,0,0,1,.74,0c.18.07.25.28.36.51.69,1.35,1.39,2.59,2.1,4,0-1,0-2.09,0-3.2a3.37,3.37,0,0,1,0-1.06C47,64.93,47.47,65,48,65c1,0,1.89,0,2.86-.06l2,0,4.23,0c.23,0,.61,0,.7.09a1.52,1.52,0,0,1,0,.82c-.12.23-.68.18-1.09.17C53.72,65.86,51,65.94,48.18,66Z"/><path class="cls-4" d="M59.87,66.7c.37.06,1-.13,1.11.16a1.63,1.63,0,0,1,0,.66c-.14.29-.71.07-1.09.14V69c0,.79-.14,1.7.44,1.88.16,0,.41,0,.54.09s.17.88-.07,1a2.89,2.89,0,0,1-.78,0,1.51,1.51,0,0,1-1.44-1.49c-.06-.88,0-1.82,0-2.76-.2,0-.34,0-.47-.08a.87.87,0,0,1,0-.8c.12-.11.27-.07.46-.08.13-.58-.26-1.76.33-1.85.37-.06.87,0,1,.23a3,3,0,0,1,0,.8Z"/><path class="cls-4" d="M61.71,64.87a1.9,1.9,0,0,1,.89.07c.17.13.15.43.14.68,0,.77,0,1.91,0,2.73,0,.59,0,1.19,0,1.83,0,.25,0,.59,0,.9s0,.63-.16.75a1.5,1.5,0,0,1-1,0c-.27-.13-.19-.53-.19-1,0-.3,0-.56,0-.81,0-1,0-2.28,0-3.3v-.84C61.39,65.45,61.31,65,61.71,64.87Z"/><path class="cls-4" d="M55.73,66.61a2.11,2.11,0,0,1,2.11,1c.06.16.12.46,0,.57a1.58,1.58,0,0,1-1,0c-.16-.07-.13-.22-.28-.36a1.06,1.06,0,0,0-.6-.24c-.45,0-1,.09-.89.56,0,.24.4.32.62.38,1,.28,2.34.42,2.34,1.77,0,2-3.46,2.08-4.25.68-.09-.17-.27-.64-.05-.81a1.81,1.81,0,0,1,1,0c.11.07.13.25.23.36a1.42,1.42,0,0,0,1.41.22.46.46,0,0,0,.29-.49c0-.26-.44-.34-.65-.39-.81-.22-1.73-.36-2.12-1a1.5,1.5,0,0,1,.37-1.87A2.54,2.54,0,0,1,55.73,66.61Z"/><path class="cls-4" d="M49.89,69.72a1.17,1.17,0,0,0,1.83.92c.19-.14.26-.38.46-.45a2,2,0,0,1,1,0c.18.19,0,.63-.13.75a2.48,2.48,0,0,1-4.42-.89,2.91,2.91,0,0,1,.78-2.9,2.24,2.24,0,0,1,1.42-.56,2.3,2.3,0,0,1,2.55,2.12c0,.27.09.71-.08.87s-.48.1-.78.1Zm1-2a1.12,1.12,0,0,0-1,1h2.24A1.13,1.13,0,0,0,50.89,67.69Z"/><path class="cls-4" d="M64.45,69.66a1.12,1.12,0,0,0,1.72.92c.22-.14.31-.41.53-.49a2.36,2.36,0,0,1,.55,0c.26,0,.45,0,.52.12s-.13.58-.23.72a2.54,2.54,0,0,1-2,1,2.18,2.18,0,0,1-1.5-.47,2.37,2.37,0,0,1-.79-1.17,3,3,0,0,1,.77-3,2.29,2.29,0,0,1,1.52-.6,2.18,2.18,0,0,1,2.36,1.79c.06.28.21,1-.08,1.16s-.48.08-.8.08Zm1.06-2a1.13,1.13,0,0,0-1,1c.68,0,1.54,0,2.21,0A1.05,1.05,0,0,0,65.51,67.67Z"/><path class="cls-3" d="M66.7,68.62c-.67,0-1.53,0-2.21,0a1.13,1.13,0,0,1,1-1A1.05,1.05,0,0,1,66.7,68.62Z"/><path class="cls-3" d="M52.14,68.7H49.9a1.12,1.12,0,0,1,1-1A1.13,1.13,0,0,1,52.14,68.7Z"/><path class="cls-5" d="M50.38,59.46a.46.46,0,0,1-.56-.35l-.21-1.49a.62.62,0,0,0-.51-.56,1.29,1.29,0,0,0-.34,0c-.26,0-.25.31-.22.5l.15,1a1,1,0,0,1-.81,1.14l-.44.06a.34.34,0,0,1-.36-.29c-.09-.64.69-.18.58-1l-.09-.64a1.07,1.07,0,0,1,0-.31.52.52,0,0,1,.16-.31c.05,0,0-.07,0-.07l-.34.05a.36.36,0,0,1-.1-.7L49,56.32a1.26,1.26,0,0,1,1.57,1.1l.16,1.11.06.43A.46.46,0,0,1,50.38,59.46Z"/><path class="cls-5" d="M52.06,59.32a.44.44,0,0,1-.53-.38l-.17-2.5c0-.29.22-.44.47-.46a.45.45,0,0,1,.53.39l.18,2.5A.44.44,0,0,1,52.06,59.32Z"/><path class="cls-5" d="M55.7,56.62c-.11,0-.17,0-.17.17l0,2a.46.46,0,0,1-.5.44.46.46,0,0,1-.51-.42l0-1.51a.74.74,0,0,1,.2-.56l0,0c.05,0,0-.06,0-.06l-1.45,0c-.23,0-.31-.18-.31-.34s.07-.36.3-.36l2.37-.05a.33.33,0,0,1,.32.36A.32.32,0,0,1,55.7,56.62Z"/><path class="cls-5" d="M57,57.82c-.25,0-.5-.15-.49-.43l0-1.11a.44.44,0,0,1,.51-.4c.26,0,.5.15.5.43l0,1.11A.45.45,0,0,1,57,57.82Z"/><path class="cls-5" d="M59.71,59.21a2.62,2.62,0,0,1-.74.07.4.4,0,0,1-.39-.42c0-.25.19-.31.41-.34.4-.07,1-.27,1.07-.76l0-.33A.56.56,0,0,0,60,57c-.13-.15-.27-.16-.49-.18l-1-.09a.32.32,0,0,1-.3-.33l.11-1.25a.44.44,0,0,1,.54-.38c.25,0,.49.17.46.47l-.07.84.72.07a1.16,1.16,0,0,1,1,.51,1,1,0,0,1,.13.66c0,.19,0,.35,0,.54A1.58,1.58,0,0,1,59.71,59.21Z"/><path class="cls-5" d="M63,59.83c-.24,0-.41-.16-.4-.44a.86.86,0,0,1,0-.15c0-.05,0,0-.07,0a1,1,0,0,1-.9.38.36.36,0,0,1-.28-.45c0-.27.16-.33.42-.34s.83-.18.88-.49l.1-.64c0-.3,0-.52-.34-.57l-.28,0a.32.32,0,0,1-.25-.4c0-.16.13-.34.36-.3l.59.09a1,1,0,0,1,.93,1.25l-.18,1.17c0,.21,0,.42,0,.62A.43.43,0,0,1,63,59.83Z"/><path class="cls-6" d="M70.79,77.09a.66.66,0,0,1-.28,0,.63.63,0,0,1-.23-.16.73.73,0,0,1-.16-.23.68.68,0,0,1,0-.56.79.79,0,0,1,.39-.39.71.71,0,0,1,.79.16.61.61,0,0,1,.15.23.68.68,0,0,1,0,.56.57.57,0,0,1-.15.23.73.73,0,0,1-.23.16A.66.66,0,0,1,70.79,77.09Zm0-.13a.59.59,0,0,0,.23,0,.7.7,0,0,0,.31-.31.62.62,0,0,0,0-.23.59.59,0,0,0,0-.23A.59.59,0,0,0,71.2,76a.46.46,0,0,0-.18-.13.55.55,0,0,0-.46,0,.57.57,0,0,0-.18.12.59.59,0,0,0-.13.19.59.59,0,0,0,0,.23.64.64,0,0,0,0,.23.57.57,0,0,0,.12.18.59.59,0,0,0,.19.13A.59.59,0,0,0,70.79,77Zm.38-.78a.21.21,0,0,1-.22.24l.23.37H71l-.22-.36h-.14v.36h-.14V76h.36C71.07,76,71.17,76,71.17,76.18Zm-.52-.11v.23h.25l.08,0a0,0,0,0,0,0,0,.13.13,0,0,0,0-.06c0-.07-.06-.11-.17-.11Z"/><path class="cls-5" d="M106.87,62.26c.53,2.51,3.62,7.45-.13,17.44-6.14,19.87-52.56,17-56.18,17.37-4.16.42-42.76-.83-47.65-15.4-2.4-5.2-1.36-14.56-.52-16.12,0,0-5.62,24.24,50.25,23.09C114.44,87.71,107,63.1,106.87,62.26Z"/><path class="cls-1" d="M48.55,98.56a127.32,127.32,0,0,1-21.81-2.17A62,62,0,0,1,11.2,91.56C6.08,89,2.84,85.89,1.58,82.2.18,79.1,0,75.07,0,72.21c0-2.62.42-6,1.12-7.34a1.43,1.43,0,0,1,2.65,1,10.13,10.13,0,0,0,0,3,13.47,13.47,0,0,0,3.06,6.76C11.24,81,22.11,87.25,48.88,87.25c1.21,0,2.45,0,3.73,0C67.27,87,79.17,85.4,88,82.49c6.83-2.25,11.78-5.27,14.72-9a12.74,12.74,0,0,0,2.79-10.78c0-.12,0-.2,0-.29a1.43,1.43,0,0,1,1.18-1.59A1.45,1.45,0,0,1,108.27,62c.07.35.23.82.4,1.36a21.68,21.68,0,0,1,1.3,6.29,26.13,26.13,0,0,1-1.87,10.54c-2.49,8-11.06,13.41-25.49,16.18-11.35,2.18-23.29,2.14-29,2.13-1.4,0-2.51,0-2.88,0S49.52,98.56,48.55,98.56ZM2.92,75a17.7,17.7,0,0,0,1.29,6,.58.58,0,0,1,0,.14c1,3,3.76,5.59,8.2,7.78a60,60,0,0,0,14.82,4.59,111.82,111.82,0,0,0,23.14,2.06c.51-.05,1.51-.05,3.17,0,5.65,0,17.4,0,28.48-2.08a50.59,50.59,0,0,0,15-5c4.4-2.47,7.21-5.59,8.35-9.27,0,0,0,0,0-.08a25.77,25.77,0,0,0,1.69-7.29A17.81,17.81,0,0,1,105,75.29c-3.3,4.15-8.7,7.49-16.06,9.92-9.1,3-21.29,4.64-36.23,4.86-13.56.28-24.7-.92-33.12-3.56-6.76-2.13-11.81-5.19-15-9.11A19.69,19.69,0,0,1,2.92,75Z"/></svg>